/* XPM */
static char *_612f76843474ad8cd3ed78470d65ba3BPPw7rJkWHZS9JBN[] = {
/* columns rows colors chars-per-pixel */
"64 64 194 2 ",
"   c #3C353F",
".  c #2D3A4A",
"X  c #3D3741",
"o  c #3E3843",
"O  c #363948",
"+  c #3E3D4B",
"@  c #2D3D50",
"#  c #323F52",
"$  c #413B45",
"%  c #443E4A",
"&  c #483D48",
"*  c #563F47",
"=  c #693E43",
"-  c #713F43",
";  c #394152",
":  c #33455A",
">  c #39475C",
",  c #2D4A65",
"<  c #394D65",
"1  c #33516D",
"2  c #3F536E",
"3  c #3D5571",
"4  c #3C5C7D",
"5  c #46414D",
"6  c #49424E",
"7  c #4D484F",
"8  c #54424C",
"9  c #5A434C",
"0  c #444454",
"q  c #4C4552",
"w  c #4E4955",
"e  c #424758",
"r  c #45485B",
"t  c #4D4C5A",
"y  c #524653",
"u  c #5B4753",
"i  c #514B56",
"p  c #534C5A",
"a  c #4F515E",
"s  c #565256",
"d  c #55515C",
"f  c #5A555C",
"g  c #5E5A5E",
"h  c #684248",
"j  c #6D444A",
"k  c #7C4244",
"l  c #76474C",
"z  c #7E4649",
"x  c #644952",
"c  c #764F56",
"v  c #605D5E",
"b  c #434D63",
"n  c #425169",
"m  c #4A5368",
"M  c #535664",
"N  c #5C5663",
"B  c #5C5A64",
"V  c #55586A",
"C  c #575C6A",
"Z  c #5C5C6A",
"A  c #425772",
"S  c #435973",
"D  c #4C5A70",
"F  c #415D7C",
"G  c #625D63",
"H  c #625D6C",
"J  c #5E606E",
"K  c #47617E",
"L  c #5C6575",
"P  c #5C697C",
"I  c #656263",
"U  c #696665",
"Y  c #65616B",
"T  c #6A6669",
"R  c #6D696B",
"E  c #716E6D",
"W  c #74726D",
"Q  c #636573",
"!  c #626876",
"~  c #656C7B",
"^  c #6A6D7B",
"/  c #7F6670",
"(  c #716C72",
")  c #6E707D",
"_  c #767273",
"`  c #7E7D75",
"'  c #7C7879",
"]  c #8E4747",
"[  c #844748",
"{  c #8D4B4D",
"}  c #914A4B",
"|  c #834E51",
" . c #8B5154",
".. c #9F5355",
"X. c #A04E4E",
"o. c #A75352",
"O. c #885C64",
"+. c #817F79",
"@. c #A5656A",
"#. c #84827C",
"$. c #3B5F81",
"%. c #3D6285",
"&. c #3D668B",
"*. c #3F6A90",
"=. c #426182",
"-. c #40678A",
";. c #456B8D",
":. c #4C6A89",
">. c #426C93",
",. c #496E91",
"<. c #4C7497",
"1. c #527595",
"2. c #517698",
"3. c #567B9D",
"4. c #597B9B",
"5. c #666F81",
"6. c #667181",
"7. c #6D7383",
"8. c #657588",
"9. c #727786",
"0. c #737B8B",
"q. c #7C7E8E",
"w. c #6B7E94",
"e. c #737F91",
"r. c #5A7EA0",
"t. c #817A8C",
"y. c #987883",
"u. c #79808E",
"i. c #6F8297",
"p. c #6D839C",
"a. c #768293",
"s. c #7A8393",
"d. c #72859A",
"f. c #7D8A9C",
"g. c #6285A5",
"h. c #6688A7",
"j. c #6789A8",
"k. c #6C8CAA",
"l. c #7088A3",
"z. c #7A8DA2",
"x. c #708FAC",
"c. c #6F90AC",
"v. c #7C91A6",
"b. c #7392AE",
"n. c #7A92AB",
"m. c #7695B0",
"M. c #7997B2",
"N. c #7D9AB4",
"B. c #898880",
"V. c #818D9E",
"C. c #888B9C",
"Z. c #828FA0",
"A. c #8392A4",
"S. c #8496AA",
"D. c #8897AA",
"F. c #8598AB",
"G. c #8C9CAD",
"H. c #909BAB",
"J. c #819DB6",
"K. c #8B9EB1",
"L. c #849FB8",
"P. c #87A0B7",
"I. c #8CA1B6",
"U. c #86A1B9",
"Y. c #8BA5BC",
"T. c #8DA6BD",
"R. c #8EA7BE",
"E. c #8FA8BE",
"W. c #96A5B6",
"Q. c #9BA7B6",
"!. c #93A6B9",
"~. c #91A9BF",
"^. c #91AABF",
"/. c #99ABBD",
"(. c #AFACB7",
"). c #91AAC0",
"_. c #93ABC0",
"`. c #94ACC1",
"'. c #95ADC2",
"]. c #96ADC2",
"[. c #98AFC4",
"{. c #9AB1C4",
"}. c #9BB1C5",
"|. c #9CB2C6",
" X c #9DB3C6",
".X c #9FB5C8",
"XX c #A2B5C5",
"oX c #A0B5C8",
"OX c #A1B6C9",
"+X c #A5B9CB",
"@X c #AABDCE",
"#X c #ADBFD0",
"$X c #AEC1D1",
"%X c #B1C3D2",
/* pixels */
"g.g.g.g.g.g.g.g.g.g.g.g.g.g.g.g.g.g.g.h.h.j.j.j.k.j.k.k.k.k.k.k.k.k.k.k.k.k.k.j.k.j.k.j.j.j.j.j.h.g.g.g.g.g.g.g.g.g.g.g.g.g.g.g.",
"g.g.g.g.g.g.r.g.g.g.g.g.g.g.g.g.h.j.j.j.j.j.k.j.k.k.k.k.c.k.k.k.k.c.c.k.k.x.c.k.k.k.k.j.k.j.j.j.h.h.h.g.g.g.g.g.4.g.g.g.g.r.g.g.",
"g.r.g.g.g.g.g.g.g.3.g.g.g.g.g.g.j.j.j.k.k.k.k.k.k.k.b.b.k.m.b.b.b.b.b.b.x.b.b.x.k.k.c.k.k.k.k.j.j.h.h.g.g.g.g.g.g.g.g.g.g.g.g.g.",
"g.g.g.g.g.g.r.g.g.g.g.g.g.g.h.h.j.k.k.k.k.k.b.b.b.b.b.b.b.b.b.b.b.m.b.b.b.b.b.b.m.k.m.k.b.k.k.k.k.k.j.h.h.h.g.g.g.g.g.g.g.r.g.g.",
"g.g.g.g.g.r.g.g.g.g.g.h.h.j.j.k.k.k.c.k.x.k.b.b.b.b.b.b.m.M.M.m.m.m.m.m.m.m.m.b.m.m.b.b.b.c.c.c.k.k.k.k.j.j.j.h.g.g.g.g.g.g.g.g.",
"g.g.g.g.g.g.g.g.g.g.h.j.j.k.k.k.k.k.b.b.m.b.m.m.M.b.M.M.M.M.M.M.M.M.M.M.M.m.M.m.m.m.m.b.b.b.b.b.b.k.k.k.k.k.j.j.g.g.g.g.g.g.g.r.",
"g.r.g.g.g.g.g.g.h.h.j.j.k.k.k.c.x.b.b.b.m.m.m.M.M.M.M.M.M.N.M.M.N.N.N.M.N.M.M.N.M.M.M.M.m.m.b.b.x.x.x.k.k.k.j.j.g.g.g.g.g.g.g.g.",
"g.g.g.g.g.g.g.g.h.h.j.k.k.k.c.b.x.b.m.m.m.m.M.N.N.M.N.N.N.N.N.J.J.N.J.N.N.N.N.N.M.N.N.M.M.m.M.m.m.b.b.x.k.k.k.k.j.h.g.g.g.g.g.g.",
"g.g.g.g.g.g.h.j.j.j.k.k.x.c.b.b.m.m.m.m.M.N.N.N.N.N.J.N.J.N.J.N.J.J.J.J.J.N.J.N.N.N.N.N.N.M.M.M.m.m.m.b.c.k.k.k.k.j.h.h.g.g.g.g.",
"g.g.g.g.g.g.h.j.k.k.x.k.b.b.b.b.m.m.M.N.N.N.N.N.J.J.J.J.U.J.U.J.U.J.J.U.J.J.U.J.J.J.J.N.N.N.N.M.m.m.m.m.m.m.b.c.k.k.k.h.h.g.g.g.",
"g.g.g.g.h.h.j.k.k.k.x.b.b.b.m.M.N.N.N.N.N.J.J.J.J.U.U.U.U.U.U.U.U.U.U.U.U.U.U.U.U.J.U.N.N.N.N.N.N.M.m.m.m.b.b.c.b.k.k.h.h.h.g.g.",
"g.g.g.g.j.j.k.k.k.b.b.b.b.M.M.M.N.N.N.N.J.J.J.U.U.U.U.U.U.U.Y.Y.Y.Y.U.Y.Y.U.U.U.U.U.U.U.U.J.J.N.N.N.N.M.m.m.b.b.b.b.k.k.h.h.h.g.",
"g.g.g.j.j.j.k.k.k.c.b.m.M.M.N.N.N.J.J.J.J.L.U.U.U.Y.U.Y.Y.Y.Y.T.Y.Y.T.Y.Y.Y.Y.Y.U.Y.U.U.U.U.J.J.N.N.N.N.M.n.m.m.b.b.c.k.k.k.h.h.",
"r.g.h.j.k.k.k.b.m.m.m.m.M.N.N.N.N.J.J.U.U.U.U.Y.Y.Y.Y._.T.T.T.T.T.E.T.).T.T.T.T.Y.Y.Y.T.U.U.U.J.J.J.J.N.N.M.M.m.b.b.b.k.c.j.h.h.",
"h.h.h.j.k.k.k.c.m.m.m.M.N.N.N.J.J.U.U.U.Y.Y.Y.Y.T.Y.Y._.T.^.T._.^.).).T._.T.E.T.Y.Y.M.k.m.b.m.b.m.N.J.N.N.N.M.M.b.b.b.b.b.j.j.j.",
"g.j.j.j.k.k.m.c.m.m.M.N.N.N.J.J.J.U.U.U.Y.Y.Y.E.T.T.)._._._.`._._._._._._._._._._.b.;.&.>.3.g.3.j.h.m.M.J.N.N.M.M.M.b.b.b.c.k.k.",
"h.h.j.k.x.x.b.b.M.M.M.N.N.J.J.U.U.Y.Y.Y.T.Y.T._.^._.`.'.`.'.'.'.'.[.'.'.'.'.'.'.f.m b S $.$.&.-.<.;.2.h.k.N.J.M.M.M.m.b.b.x.k.k.",
"j.j.k.k.x.b.b.M.M.M.N.N.J.U.J.U.U.Y.Y.Y.T._.)._.'.'.'.'.[.'.[.|.[.[.[.[.[.[.[.K.N % $ % r b b 3 4 4 4 ,.r.k.x.N.N.M.m.b.b.b.x.k.",
"j.k.k.x.b.b.m.M.M.N.N.N.J.J.U.U.Y.T.T._.)._._._.'.'.[.|.|.[.|.|. X X X[.[. XD.Z % $ o o $ $ $ $ % t r < $.;.,.l.S.J.M.m.b.b.x.x.",
"j.k.k.b.m.m.m.M.N.N.J.J.U.U.Y.Y.Y.T.T._._.'.'.'.'.|.|.|.|.|.|.|. X X XoX XA.i $ o o $ $ % % e % q H ( d < 3 V O.@.y.Z.A.m.b.x.x.",
"k.k.x.x.w.p.m.M.N.J.J.J.U.Y.Y.Y.T.T.T.).`.'.[.[.|.|.|..XoXoXoXoXoXoXoXoXD.p $ X o o % e A $.-.S t H H y $ * } o...X...@.y.b.b.b.",
"k.k.x.b.P 0 L n.N.N.U.U.U.U.Y.E.^._.'.'.[.[.|.|.|.oXoXoXoXoXoX+X+XoXoX+X5.$ $ $ o $ % < , 1 $.%.D b r + # * k [ | / / O. .t.b.b.",
"k.x.b.b.b.P % V d.U.U.U.U.Y.E.E.^._.'.[.[.|.|.|.oXoXoX+X+X+X+X+X+X+X+X+X^ $ o o + % % # 1 $.$.&.-.-.2 : > q 7.q.A.J.J.m.z.b.b.b.",
"k.x.b.b.M.b.M o t w.J.Y.Y.T.T.)._.`.'.[.|.|..XoXoXoX+X+X+X+X+X@X+X#X+X#X5.o o o $ % # # , , 1 $.< # # % q e._.J.J.J.J.J.M.M.m.m.",
"b.b.b.b.M.M.8.5 X 5 6.U.Y.Y.E.).`.`.|.[.|..XoXoX+X+X@X+X+X#X@X@X#X#X#X`.D % o o X + O . @ # # # + % X V Z.).).L.J.U.J.J.M.M.M.m.",
"k.b.m.n.M.M.N.8.0 o % 6.K._._._.'.|.|.|.|.oXoX+X+X+X@X@X#X#X#X$X#X#X[.k.:.e 0 % $ $ X O O O o o $ $ % t.).Y.).L.U.J.J.J.M.M.M.m.",
"c.b.m.M.N.N.N.J.n.L o $ M z.T.'.'.|.|.|.oX+X+X+X+X@X@X%X#X$X%XoX_.N.k.k.h.:.S b b % % $ $ $ $ $ % q w.).).).).U.U.U.J.J.J.M.M.m.",
"b.b.m.M.N.N.J.J.U.U.6.$ o 5 0.'.[.|.|..XoX+X+X+X@X@X$X$X$X#XK.1.<.,.2.4.2.2.2.2.:.>.<.3 n & q p p Q ).`.).).).J.Y.U.U.J.J.J.M.m.",
"b.m.m.M.N.N.J.U.U.Y.Y.~ 5   5 0.K.|.oXoXoX+X@X@X@X$X$X%X(.+.f 3 F 3 =.S =.b S =.n S A p u * p % % q.[.[._._.).).).U.U.J.M.M.M.M.",
"b.b.m.M.N.N.N.J.U.Y.Y.Y.a.a o $ p s.'.+X+X+X@X@X$X%X+XC. .} z y 0 r u y r * u 8 = - = = * % % % % S.|.'.'.).).Y.Y.U.J.U.J.J.M.M.",
"b.m.m.M.N.N.U.U.U.Y.T.E.^.K.! o o 5 Q G.+X@X@X@X@XQ.) & & 9 x l z z | j z { c l { ] l * % % X X p !.|.[.`.).).).).J.U.J.J.J.J.M.",
"b.m.m.N.N.J.U.U.U.Y.T.E.^.'.^.Q $ o $ p u.oX@X%XH.p $ $ $ % * k h = j } { { x { - = p p b % X X p _.|.[.`.).).).).J.J.U.J.J.M.M.",
"b.m.M.N.N.N.J.U.Y.Y.Y._._.'.!.^ G q & & & Q W.+XQ o $ % q q % $ 0 & = [ - 9 9 j * 5 w w & $ $ X ~ |.|.[.'.`._.~.T.Y.Y.L.J.N.N.M.",
"b.b.M.M.N.N.U.U.U.Y.T._._.'.G.B p d d % % % d Z $ $ q i y % $   o $ & 8 & % % y q q w w w % % % q..X|.[.[.`._.T.Y.Y.Y.L.J.J.N.M.",
"b.M.M.N.N.U.N.Y.Y.Y.T._._.'.|.f.G Y d p p % & $ $ & p p % $ o o o X o o $ & p p i v v w w q & w K.oX|.|.[.`._._.Y.Y.Y.L.J.N.N.N.",
"b.M.M.N.N.J.U.U.U.Y.T.T.'.'.[.0.G G w p p d % % % w y % % $ o o o o o o q d p i v #.( R N q p Z !.XX|.|.`._.).T.T.Y.J.L.J.J.N.N.",
"b.m.M.N.J.J.U.U.Y.Y.T._.)._.|.D.N i q q % q q % w q % % $ o $ o o $ % w p p y f R R v +.( s 6 0.oXoX|.|.|.`._.^._.Y.Y.U.L.J.N.M.",
"b.M.M.N.N.N.U.U.Y.Y.T.~._.'.[.D.N f w 6 % % % p p % % % $ $ o o $ % i i i i i w q 7 v E Y p 5 G.+XoX|.[.[.`._.^.Y.Y.U.U.J.J.N.M.",
"b.M.M.N.N.U.U.U.Y.Y.T._.`.'.|.K.^ 7 s 6 & % % p % % $ % % $ o % q i i 7 I W G G N i 6 q q 6 J .XoXoX|.[.'.`._.T.Y.Y.U.J.J.N.N.N.",
"b.b.M.M.N.N.J.U.U.Y.).T.)._.|.Z.i g R s w % p q % % & % o $ % p p q q i i d T B.W I i q % % Y oXoXoX|.[.[.`._.T._.U.Y.U.J.J.N.M.",
"b.n.M.N.N.U.U.U.Y.Y.T._.).).|.f.p s G U q q q % % 5 % o % q i i i N v i 6 i ` #.E R R G 6 % ^ oXoX X[.[.[._.).Y.Y.L.U.U.N.N.N.N.",
"b.M.M.M.N.N.N.U.U.Y.Y._.).`._.).f.7.H q 7 p w & % o o % w y q 6 I ` _ f i q f G G #.+.H 6 H /.oXoX|.|.[.'._.).)._.U.U.U.J.N.N.N.",
"b.m.m.M.N.J.N.U.U.Y.Y.Y.).).[.|.|.|.V.Q p w & % o $ q i i i q i W R G E f p i 6 v U g q 0 V.+XoX X|.[.[._._._.Y.Y.Y.U.J.J.N.M.M.",
"b.b.m.M.N.N.N.U.U.U.Y.).).)._.[.[.|.XXQ.H % $ + % q y i G N q q i q G #.R E T q & 6 % % ^ oX+X.X X|.[.[._.).T.Y.L.U.U.J.N.N.M.M.",
"k.b.m.M.N.N.N.U.U.Y.Y.).Y.)._.`.[.XX[.f.w $ % q i w w I _ f w f i y f I I _ I i q % % Q Q.+XoX.X|.[.[.[.).).Y.Y.Y.U.J.J.J.N.N.M.",
"b.b.m.M.N.N.N.N.J.Y.U.Y._._._.[.'.[.K.p o % & % 5 7 U ' ' d G _ s v g w f s i 6 H V.q.XX+XXX.X|.|.|._._._.Y.).Y.U.U.L.J.N.N.M.m.",
"b.b.b.m.M.M.N.U.L.U.U.Y.Y._._.).'.K.V % p Z.e.Z 6 7 U #.R Z _ U 6 s f 6 5 t ^ 9.XX+X+X+XoX.X.X|.[.[.[._.).Y._.Y.U.U.J.J.N.N.m.m.",
"k.c.m.m.M.N.N.J.J.J.U.Y.Y.Y._._.'.9.$ d D.XX+X'.G.^ 6 i p W W 7 $ $ $ & B H.XXoX+X+X+XoXoX.X|.|.[._.[.)._._.U.U.U.L.J.N.N.M.m.m.",
"k.c.b.m.m.M.N.N.J.J.U.U.Y.Y._._.I.M B A.|.|..X.X+X|.7.$ s R s s ~ 5 5 5 A.@X+X@X+XoXoX.X|.|.|.'.'.`._.).Y.Y.Y.U.U.J.J.N.N.M.m.m.",
"c.b.b.b.m.M.N.N.J.J.U.U.Y.Y.Y.).T.F.!.[.|.|.|. X.XoX|.Z ; 7 5 C.oXJ 5 t Q.@X+X+XoXoX|..X|.|.[.'._.`.^.Y.Y.Y.U.U.U.J.N.N.M.M.m.b.",
"k.k.b.b.m.m.M.N.N.J.U.U.Y.Y.Y.T.^._._.`.[.|.[.|. X XoXZ.o o w G.Q.d % w /..XoX.X+X X|.|.|.[.'.'._.~.~.T.Y.Y.U.U.J.J.N.N.M.m.b.b.",
"k.k.k.b.m.M.M.M.N.J.J.J.U.U.Y.Y.T.E.)._.'.'.[.|.|.|.|.V.o   B |.!.5 X w /..X.X|. X X[.|.'.'.'.).).~.T.Y.Y.U.U.L.J.N.M.M.M.m.b.b.",
"k.k.x.b.b.b.m.M.N.N.J.J.J.U.Y.Y.Y.T.E.^.'.'.'.'.|.|.|.z.$ X ~ .X/.d   w !.|..X[.|.|.`.|.'.'.).).T.T.Y.U.U.L.J.J.N.N.M.M.m.b.b.b.",
"j.j.k.b.b.m.m.M.M.N.N.J.J.U.U.U.Y.Y.E.E.^.^.'.'.'.|.|.f.$ 5 F.|.|.~   J /.[.|.|.'.|.'.`.).).T.).T.Y.Y.Y.Y.L.J.J.N.N.M.m.b.b.b.k.",
"j.j.k.k.k.b.b.m.M.M.N.J.J.J.U.U.Y.Y.Y.T.E.^.^.^./.`.[.A.5 Z _.|.|.S.5 L [.|.'.'.'.`.E._.).)._.T.Y.Y.U.U.J.J.J.N.N.M.M.m.m.k.k.k.",
"j.j.k.k.x.b.b.m.M.M.M.N.J.J.J.U.U.Y.Y.Y.E.E.E.E._.)._.T.t 7./.|.'.'.L 7 I.'.'.'.'._._.E._.T.Y.Y.Y.U.U.L.J.J.N.N.N.M.m.b.b.b.b.k.",
"h.h.j.k.k.k.b.b.m.M.M.N.N.N.J.J.U.U.U.Y.Y.T.T.E.E.E.^.I.B S.'.^.^.'.v.w v./.^._._._.T.T.T.Y.Y.U.U.U.U.U.J.N.N.N.M.M.b.b.b.x.k.k.",
"g.h.j.j.k.k.x.b.b.m.m.m.N.N.N.J.N.U.U.U.U.Y.Y.T.E.E.E.P.C P.^.E.`.^.E.M ~ ^.E.E.T.T.T.Y.Y.Y.Y.U.U.U.N.J.N.N.M.M.M.b.b.b.k.k.k.j.",
"g.g.h.h.k.k.k.b.b.b.m.m.M.M.N.J.U.U.U.U.U.U.U.Y.Y.Y.E.K.C F.T.E.E.E.E.~ a U.E.T.Y.Y.Y.Y.U.U.U.L.J.N.N.N.N.M.m.m.m.b.x.b.k.k.j.j.",
"g.g.h.h.j.k.k.b.b.b.m.m.M.M.N.N.N.N.N.U.U.U.U.U.U.Y.U.J.B N.T.T.T.T.E.v.a v.T.Y.Y.Y.U.U.U.U.J.J.N.J.N.N.M.M.m.m.b.x.k.k.k.j.h.j.",
"g.g.g.h.h.j.j.k.k.m.k.m.m.m.m.M.N.N.N.N.N.U.U.U.U.U.U.N.a z.T.Y.Y.Y.U.P.J L Y.U.U.U.U.J.J.U.J.N.N.N.N.M.m.m.m.b.b.x.k.k.k.j.h.h.",
"g.g.g.g.h.h.j.j.k.k.x.m.m.m.m.m.M.N.N.N.N.U.N.U.U.U.U.F.w t d.Y.U.U.U.Y.z.a z.U.U.U.J.J.J.J.N.N.N.N.N.m.m.b.b.b.k.x.k.k.j.h.g.g.",
"g.g.g.r.g.j.j.j.k.k.b.x.k.m.m.m.m.M.M.N.N.N.N.N.U.N.N.J.L ; t v.U.U.U.U.N.a L N.J.J.J.N.N.N.N.N.M.m.m.m.m.b.b.x.k.k.j.j.h.h.g.g.",
"g.g.g.g.g.g.j.j.j.k.k.k.k.b.c.m.m.m.M.M.M.N.N.N.N.N.U.N.N.i.M i.U.N.U.N.U.~ ; J p.N.N.N.N.N.M.M.m.m.m.b.b.b.k.k.k.k.h.h.g.g.g.g."
};
