/* XPM */
static char *_c0009cf7ddd4022d7ad7ab12bc6f372IMteDLJy2CIB22i3[] = {
/* columns rows colors chars-per-pixel */
"64 64 242 2 ",
"   c #000000",
".  c #0C0302",
"X  c #03080A",
"o  c #140200",
"O  c #1D0400",
"+  c #1B0C09",
"@  c #120F10",
"#  c #0B1819",
"$  c #181717",
"%  c #240400",
"&  c #270A07",
"*  c #320600",
"=  c #3B0700",
"-  c #2A100E",
";  c #2D1010",
":  c #211918",
">  c #381517",
",  c #14221F",
"<  c #122E32",
"1  c #143236",
"2  c #232222",
"3  c #2E3335",
"4  c #4A0900",
"5  c #590C01",
"6  c #4F1502",
"7  c #45191C",
"8  c #690D00",
"9  c #671B01",
"0  c #691C02",
"q  c #751709",
"w  c #53201E",
"e  c #7B240F",
"r  c #6F2813",
"t  c #4C1C21",
"y  c #562225",
"u  c #6E2B2E",
"i  c #6E482C",
"p  c #1C464C",
"a  c #2B4B51",
"s  c #0E5875",
"d  c #145B75",
"f  c #235566",
"g  c #1C6274",
"h  c #32666F",
"j  c #4C504E",
"k  c #6E604D",
"l  c #49716D",
"z  c #797774",
"x  c #8A1100",
"c  c #871801",
"v  c #971600",
"b  c #861710",
"n  c #A21400",
"m  c #AB1600",
"M  c #B41600",
"N  c #BB1902",
"B  c #B21314",
"V  c #892816",
"C  c #B42218",
"Z  c #850A2E",
"A  c #A61333",
"S  c #942E21",
"D  c #8A3332",
"F  c #973839",
"G  c #AC3C3B",
"H  c #BA3C37",
"J  c #B33E3E",
"K  c #CC1B01",
"L  c #D41A00",
"P  c #DC1B00",
"I  c #E31C00",
"U  c #EC1D00",
"Y  c #F31E00",
"T  c #FD1F00",
"R  c #ED1A13",
"E  c #D62713",
"W  c #E1250B",
"Q  c #FD2103",
"!  c #F9260B",
"~  c #E42811",
"^  c #FC2B16",
"/  c #C01A3C",
"(  c #D0352A",
")  c #EF302C",
"_  c #FB3A34",
"`  c #874A34",
"'  c #B6403E",
"]  c #8B314A",
"[  c #9A3942",
"{  c #A53B47",
"}  c #B23F4C",
"|  c #960473",
" . c #AF166A",
".. c #B2326B",
"X. c #C53856",
"o. c #EF2258",
"O. c #D0376E",
"+. c #8C534E",
"@. c #B64042",
"#. c #BC4244",
"$. c #BC434F",
"%. c #AF4850",
"&. c #867C7D",
"*. c #AE6A67",
"=. c #C44549",
"-. c #CB494E",
";. c #C94855",
":. c #D34B52",
">. c #DA4D56",
",. c #D64C5C",
"<. c #DD4F5C",
"1. c #C45958",
"2. c #D9555D",
"3. c #FF494E",
"4. c #E54E58",
"5. c #FF4D54",
"6. c #E3515C",
"7. c #EA535F",
"8. c #FF525D",
"9. c #D54869",
"0. c #EC4C6D",
"q. c #EB5462",
"w. c #E85764",
"e. c #F25666",
"r. c #FB5766",
"t. c #F5546C",
"y. c #F75869",
"u. c #FF5B6D",
"i. c #FB4D79",
"p. c #FF5B71",
"a. c #FF537A",
"s. c #FC5779",
"d. c #CF716A",
"f. c #E96573",
"g. c #EC6E74",
"h. c #FC6777",
"j. c #718576",
"k. c #B38C7E",
"l. c #015D8A",
"z. c #0A608C",
"x. c #127095",
"c. c #1D7794",
"v. c #247C94",
"b. c #2B7E95",
"n. c #337990",
"m. c #1177AB",
"M. c #3D7FA5",
"N. c #A5008C",
"B. c #B13A8A",
"V. c #E22E9C",
"C. c #FF389C",
"Z. c #F30CAA",
"A. c #FF1BB9",
"S. c #F52EA7",
"D. c #F622BA",
"F. c #FF33BB",
"G. c #AA6B91",
"H. c #FF4986",
"J. c #F07A88",
"K. c #E061A3",
"L. c #FE0CC8",
"P. c #FF05D4",
"I. c #FC0ED7",
"U. c #FF00DA",
"Y. c #FE11D6",
"T. c #EA23DB",
"R. c #B442C3",
"E. c #E44DDB",
"W. c #2487AC",
"Q. c #318BAA",
"!. c #418491",
"~. c #769388",
"^. c #6BAE9E",
"/. c #78AD97",
"(. c #4C90A5",
"). c #46A7B3",
"_. c #58B4B3",
"`. c #62A9B2",
"'. c #1A8BC5",
"]. c #04A6F5",
"[. c #05A8F9",
"{. c #00A9FC",
"}. c #13B9FF",
"|. c #55BAC7",
" X c #1FC1FF",
".X c #29C3F8",
"XX c #35D0FF",
"oX c #3DD5FF",
"OX c #57CDDF",
"+X c #66D0CE",
"@X c #55D6E8",
"#X c #51DBF3",
"$X c #5BE5F9",
"%X c #5DE6F9",
"&X c #69E9F0",
"*X c #6EF2F9",
"=X c #74F5F6",
"-X c #7AF9F7",
";X c #7AFCFA",
":X c #898585",
">X c #9B9B9B",
",X c #BB988B",
"<X c #81AE8F",
"1X c #86A39B",
"2X c #B0AA95",
"3X c #8A93A1",
"4X c #B18BB4",
"5X c #8FB2AC",
"6X c #B6B3AB",
"7X c #CE978F",
"8X c #F09096",
"9X c #D1B78F",
"0X c #CCB193",
"qX c #F09AA4",
"wX c #CCACA8",
"eX c #E0A0A8",
"rX c #B8C3A4",
"tX c #B7D8B4",
"yX c #B9E2BC",
"uX c #C7C8AD",
"iX c #AEA3DC",
"pX c #EE90D0",
"aX c #C8BDC3",
"sX c #F4B8C3",
"dX c #A9D4D7",
"fX c #99E6D5",
"gX c #9DEDD5",
"hX c #9CF5DE",
"jX c #B7EDC4",
"kX c #B8F2C8",
"lX c #B6F9CD",
"zX c #B8F8CC",
"xX c #ABF8D5",
"cX c #A3F8DA",
"vX c #AFFCD8",
"bX c #B4FAD1",
"nX c #88F7EC",
"mX c #8CF9EA",
"MX c #93F9E6",
"NX c #99F9E2",
"BX c #8FF1F2",
"VX c #81F9F4",
/* pixels */
"NXNXNXNXNXNXNXnX-X-X-X-X-X-X-X-X%X$X$X$X$X$X$X$X$X$X$X$X$X$X$X$X#XoX.X).g g g g g d s s s s s s d Q..X}.].{.{.{.{.{.{.].{.{.{.{.",
"NXNXNXNXNXNXNXmX-X-X-X-X-X-X-X-X=X$X$X$X$X$X$X$X$X$X$X$X$X%X$X$XOXW.1 # X                         @ a M.].{.{.{.{.{.{.{.{.{.{.{.",
"NXNXNXNXNXNXNXNXMX-X-X-X-X-X-X-X-X*X$X$X$X$X$X$X$X$X$X$X%X%X$X).1 X                                   @ a '.{.{.{.{.{.{.{.{.{.{.",
"NXNXNXNXNXNXNXNXNX-X-X-X-X-X-X-X-X-X%X$X$X$X$X$X$X$X$X$X%X@Xg ,                                           $ l.{.{.{.{.{.{.{.{.{.",
"hXNXNXNXNXNXNXNXhXMX-X-X-X-X-X-X-X-X=X%X$X$X$X$X$X$X$X$X).1                                                 X l.].{.{.{.{.{.{.{.",
"cXNXhXNXNXNXNXNXNXhXMX-X-X-X-X-X-X-X-X*X$X$X$X$X$X$X$X).,                                                     X l.].{.{.{.{.{.{.",
"xXNXNXNXNXNXNXNXNXNXhX-X-X-X-X-X-X-X-X=X%X$X$X$X$X$X).,                                                         X z.[.{.{.].{.{.",
"zXxXNXNXNXNXNXNXNXNXhXmX-X-X-X-X-X-X-X-X=X%X$X$X$X).#                                                             @ n.].{.{.{.{.",
"lXlXxXNXNXNXNXNXNXNXNXNXmX-X-X-X-X-X-X-X-X%X$X%XOX<                                                                 : '.[.{.{.{.",
"zXlXvXhXNXhXNXNXNXNXNXNXMX-X-X-X-X-X-X-X-X=X%X$Xf                                                                     f ].{.{.{.",
"zXzXzXxXNXNXMXNXNXNXNXNXhXmX-X-X-X-X-X-X-X-X*X).#                                                                     $ '.{.{.{.",
"zXzXlXlXhXNXNXNXNXNXNXNXNXNXnX-X-X-X-X-X-X-X+X1                                                                       X l [.{.{.",
"zXzXzXzXxXNXNXhXNXNXNXhXNXNXmX-X-X-X-X-X-X-X!.                                                                          1 ].[.[.",
"zXzXzXzXzXxXhXMXNXNXNXMXNXNXhXmX-X-X-X-X-X=Xa                                                                           . m.{.[.",
"zXzXzXzXlXlXNXNXNXNXNXNXNXNXMXhXmX-X-X-X-X_.@                                                                             n.[.[.",
"zXzXzXzXlXlXcXNXNXNXNXNXNXNXNXNXMX-X-X-X-Xh                                       . O O X                                 3 ].{.",
"zXzXzXzXzXzXzXxXNXNXMXNXNXNXNXNXNXmX-X-X-Xa X                                   4 n K G u >                               # '.{.",
"zXzXzXzXzXzXzXlXhXNXNXNXNXNXNXNXhXMX-X;X|.@                                 o 8 P ~ ( =.6.:.>                             & Q.{.",
"zXzXzXzXzXzXzXlXxXNXNXNXNXNXNXNXNXNXnX;X_.X                               o v T ~ H #.>.u.u.@..                           - M.[.",
"zXzXzXzXzXzXzXzXlXcXNXNXNXNXNXNXNXNXNXnXh                               o n T ~ H #.>.u.u.u.e.w                           & (.}.",
"zXzXzXzXzXzXzXzXzXxXhXNXNXNXNXNXNXNXfXwX%.7 +                         * m T ~ H =.6.u.u.u.u.u.%..                         & (.}.",
"zXzXzXzXzXzXzXzXzXzXcXhXNXNXNXNXNXMXhX8Xy.y.;.F > X               o 5 I Q E #.;.y.w.;.u ;.u.u.2.;                         + !.}.",
"zXzXzXzXzXzXzXzXzXzXlXcXNXNXNXNXNXNXhX7Xu.u.h.u.q.{ u X         % m T T E } } ;.[ u > t 2.u.u.r.u             %             c. X",
"lXkXzXzXzXzXzXzXzXzXzXxXMXNXNXNXNXNXgX2Xf.u.u.u.u.u.r.[ -   O 5 I T T ( D u D [ [ ,.q.e.u.u.u.u.D X         % N %           x. X",
"zXzXzXzXzXzXzXzXzXzXzXlXcXhXNXNXNXNXNX/.i J.i.u.u.u.u.u.{ b P Q T ~ _ w.2.<.w.u.u.u.u.u.u.u.u.u.1.+       o x L O           x. X",
"zXzXzXzXzXzXzXzXzXzXzXzXlXcXNXNXNXNXMX^.3 *.u.u.e.e.r.u.u.r._ Q ^ h.y.p.s.u.u.u.u.u.u.u.u.u.u.u.e.7       = Y Y 4           x. X",
"zXzXzXzXzXzXzXzXzXzXzXzXlXcXhXMXNXNXNX^.X y t.u.q.=.:.6.7.u.r._ u.sXqX8X8X8X8Xh.s.u.r.r.u.u.u.u.u.F       * U T M *         x. X",
"zXzXzXzXzXlXkXzXzXzXzXzXlXlXhXhXNXNXNX^.  . { u.u.6.H } #.4.u.u.u.8Xk.j 1X4X4XpXsX8Xh.i.u.u.u.u.u.;.+     * Y T T M *       x. X",
"zXzXzXzXzXzXzXzXzXzXzXzXzXzXbXhXNXNXNX^.@   t t.u.u.>.J G #.y.u.u.u.d.j l R.U.T.3X~.d.J.u.u.u.u.u.w.>     * U T T T n       x. X",
"zXzXzXzXzXzXzXzXzXzXzXzXzXzXlXhXNXNXNX^.X   + :.,.y.e.} D F y.u.u.u.h.8X2X3XR.3Xl , 2 1.u.u.u.u.u.y.u     = Y T T T M %     x. X",
"zXzXzXzXzXzXzXzXzXzXzXlXzXzXzXlXcXNXNX^.X     w +.f.u.,.D F y.u.u.u.u.p.h.eXiX6Xz & 7 $.u.u.u.u.u.p.+.    % L T T T T m     x. X",
"zXzXzXzXzXzXzXzXzXzXzXkXzXzXzXzXbXNXNX^.X     $ :Xf.u.q.H #.u.u.u.u.u.p.p.u.h.H.y.q.y.u.u.u.u.u.u.u.-.O     = U T T Q M     x. X",
"zXzXzXzXzXzXzXzXlXkXzXzXzXzXzXzXlXcXNX^.X     $ j.u <.u.q.4.u.u.u.u.u.u.u.u.r.u.u.u.u.u.u.u.u.u.u.u.w.>     % U T T Q M     x. X",
"zXzXzXzXzXzXzXzXzXzXzXzXzXzXzXzXzXvXcX^.      : &.2 t w.u.u.u.u.u.u.u.u.u.u.u.u.u.u.u.u.u.u.u.u.u.r.r.7     % U Q T L 8     x. X",
"zXzXzXzXzXzXzXzXzXzXzXzXzXzXzXzXzXzXvX^.X   j z >X3Xj t 6.u.u.u.u.u.u.u.u.u.u.u.u.u.u.u.u.u.u.u.r.u.u.`     * W T Y 4       c. X",
"zXzXzXzXlXkXzXzXzXzXzXzXzXzXzXzXzXzXvX/.    $ 3 G.3 $   y y.u.u.u.u.u.u.u.u.u.u.u.u.u.r.u.u.u.u.u.u.u.%.    O m T L %       v. X",
"zXzXzXzXzXzXzXzXzXzXzXzXzXzXzXzXzXzXzX<X.     X , X     7 y.u.u.r.u.u.u.u.u.u.u.u.u.u.u.u.u.u.u.u.u.u.%.      % I v         v.XX",
"zXzXzXzXzXzXzXzXzXzXzXzXzXzXzXzXzXzXzX<XX               > y.u.u.u.u.u.u.u.u.u.u.u.u.u.u.u.u.u.u.u.u.u.$..     % I v         c.#X",
"zXzXzXzXzXzXzXzXzXzXzXzXzXzXzXzXzXzXzX<X                7 e.u.u.u.u.u.u.u.u.u.u.u.u.u.u.u.u.r.u.u.u.u.w.>     O I v         v.oX",
"zXzXzXzXzXzXzXzXzXzXzXzXzXzXzXzXzXzXzX<XX               ; >.r.u.u.u.u.u.u.u.r.u.u.u.u.u.u.t.e.r.u.u.u.r.y     % I v         v.oX",
"zXzXzXzXzXkXlXzXzXzXzXzXzXzXzXzXzXzXbX<XX               ; @.:.u.u.u.u.u.u.u.u.u.u.u.u.y.O. .| O.t.u.u.u.F     O I n         v.oX",
"zXzXzXzXzXzXzXzXzXzXzXzXkXzXzXzXzXzXzX2X6 .             - J ' -.7.u.u.u.u.u.u.u.u.r.,...G.K.B.|  .y.u.u.S     % m 5         v.oX",
"zXzXzXzXzXzXzXzXzXzXzXzXlXzXzXzXzXzXzX9XK .             ; J } J =.7.u.u.u.u.u.u.s.X.q r ` k.,X..O.0.u.7.r .     o           v.oX",
"zXzXzXzXzXzXzXzXzXzXzXzXzXzXzXzXzXzXbX9XN               ; J J =.' #.6.y.u.u.u.u.t.A v b 0 q u O.u.u.e.S 6 X   . O           v.oX",
"zXzXzXzXzXzXzXzXzXzXzXzXzXzXzXzXzXzXzX9XK =             ; J =.q.7.-.#.-.e.u.u.u.p.O.P I M L / i.u.4.S 0 6 .   % 8           v.oX",
"zXzXzXzXzXzXzXzXlXlXzXzXzXlXzXzXzXzXlX9X! K .           ; J 6.p.u.u.7.-.=.:.r.u.y.0. .R P U R r.>.V 0 0 6     4 8           v.oX",
"zXzXzXzXzXzXzXzXkXlXzXyX0X7X8X7X8X0XwXd.Q K .   O o     ; J q.u.u.u.u.u.2.=.=.6.u.u.0.) I L ^ 4.S 0 0 0 6   % P x           v.oX",
"zXzXzXzXzXzXzXzXlXyX0Xg.q.e.r.u.u.r.p.u._ L %   8 x     ; #.y.u.u.u.u.u.u.e.>.=.6.u.u._ I I E S 9 0 0 0 6   % U x           b.oX",
"zXzXzXzXzXzXzXlXuXg.u.u.u.u.u.u.u.p.u.p.3.T N . q L 4   ; #.u.u.u.u.u.u.u.u.u.>.' w.u.^ P W V 0 0 0 0 0 6   5 T x         + (.#X",
"zXzXzXzXzXzXzXrXg.u.u.u.u.u.u.u.u.u.u.p.8.^ I 8 x o.B   - $.y.u.u.u.u.u.h.u.u.q.V V ' ~ I W 0 0 0 0 0 0 6   v T 5         < @X#X",
"zXzXzXkXlXzXrXd.y.u.u.u.u.u.u.p.u.u.u.u.p.3.T U K Z.Z   ; #.y.u.p.u.u.u.u.u.u.7.e 9 9 v I U v 0 0 0 0 0 6   v I O         < #X#X",
"zXzXzXlXlXjXd.e.y.u.u.u.p.u.u.u.p.u.u.u.p.r.^ T ! Z.Z   o ] t.h.u.u.u.u.u.u.u.e.e 9 0 9 v I L 0 0 0 0 0 6   v U %         < @X$X",
"zXzXlXzXzX,X-.u.u.u.u.u.u.u.u.p.u.u.u.p.u.u.3.^ T i.A     N.L.H.u.p.u.y.e.u.u.q.e 9 9 9 0 c m e 0 0 0 0 6 X x M O         < #X$X",
"zXzXlXlXyX1.r.u.u.u.p.u.u.u.u.u.p.u.u.u.u.u.p.3.^ 5.C o   N.U.F.s.p.u.q.-.u.u.7.e 9 0 0 0 0 0 0 0 0 0 0 6 . 8 %           3 @X$X",
"zXzXzXlXk.1.u.u.p.u.u.u.u.u.u.u.u.u.u.u.u.p.u.p.8.r.^ x . | U.U.S.u.u.q.-.e.r.p.+.9 0 0 0 0 0 0 0 0 0 0 6   8 O         X l $X$X",
"zXzXzXyXd.y.u.u.u.u.p.u.u.u.p.u.u.u.p.u.u.u.u.u.a.i.5.) n A P.U.P.C.p.q.' #.=.g.5Xi r 0 0 0 0 0 0 0 0 0 6   8 O           Q.%X$X",
"zXzXlXrX2.u.u.p.u.u.p.u.u.u.p.u.u.p.u.u.u.p.u.u.u.u.p.8._ o.P.U.U.P.C.t.>.>.>.2.4XiX5X/.~.j.j.j.j.k 0 0 6   .           . (.%X$X",
"zXzXlXrXq.p.u.u.u.p.u.u.u.u.u.u.u.u.u.u.u.u.p.u.p.u.u.u.<.9.Y.U.U.U.P.C.p.u.y.;.X.V.E.iXVXVX;X;XVX&Xj.z j X             , |.$X$X",
"zXzXlXrXq.p.u.u.u.u.p.u.u.u.u.u.p.u.u.u.u.p.u.u.u.u.u.u.e.=.V.I.U.U.U.P.A.H.p.y.:.X.Z.I.K.eXaXdXMXVXVX;X&Xp           . a $X$X$X",
"zXzXzXrX2.u.u.u.u.u.u.u.u.u.u.p.u.u.u.p.u.u.u.u.u.u.p.u.p.7.$.D.P.U.U.U.U.I.C.p.u.q.<.D.A.i.s.h.J.eXdXBX;X_.X         2 `.$X$X$X",
"zXzXzXrX-.y.u.p.u.u.u.u.p.u.u.u.p.u.u.u.u.u.u.u.u.u.u.u.u.y.#.;.L.U.U.U.U.U.P.S.h.u.u.a.A.A.a.u.p.u.h.qXdX&Xp X !.,   l %X$X$X$X",
"zXzXzX2X-.y.u.u.u.u.p.u.u.u.u.p.u.u.u.u.u.p.u.u.p.u.u.p.u.u.>.' 9.Y.U.U.U.U.U.P.F.H.u.u.a.A.A.a.p.p.u.u.h.dXh h OX1 $ |.$X$X$X$X",
"zXzXzX*.=.u.u.u.u.p.p.u.u.u.u.u.u.u.u.u.u.u.p.u.u.u.u.u.u.u.e.=.%.V.U.U.U.U.U.U.U.L.i.u.u.i.D.F.s.u.p.u.u.J.^.$X$X|.).#X$X$X$X$X",
"zXzXtX1.6.u.p.u.u.u.u.u.u.p.u.u.u.p.u.u.u.p.u.u.u.p.u.u.u.u.u.4.H B.Y.U.U.U.U.U.U.P.L.a.u.u.h.F.F.i.u.u.u.h.aX*X$X$X$X$X$X$X$X$X"
};
