/* XPM */
static char *_61a2c058b7e4b0fcae8573441b18805eUhPeOtWcJbkp0xV[] = {
/* columns rows colors chars-per-pixel */
"64 64 247 2 ",
"   c #0B0203",
".  c #0D040B",
"X  c #060204",
"o  c #11060D",
"O  c #130A0D",
"+  c #1A0D0E",
"@  c #130705",
"#  c #150B13",
"$  c #190E16",
"%  c #1B0F18",
"&  c #170F1A",
"*  c #1C1214",
"=  c #1C121A",
"-  c #1A1518",
";  c #26160F",
":  c #221415",
">  c #22151C",
",  c #241A1D",
"<  c #2A1C1D",
"1  c #281916",
"2  c #331E19",
"3  c #2C211E",
"4  c #25201D",
"5  c #3B241D",
"6  c #36231B",
"7  c #1F1821",
"8  c #221720",
"9  c #241B22",
"0  c #2B1D24",
"q  c #2F1F29",
"w  c #321F21",
"e  c #252125",
"r  c #2C2125",
"t  c #2C252A",
"y  c #2E282C",
"u  c #332425",
"i  c #3B2624",
"p  c #3D2A24",
"a  c #33252B",
"s  c #342A2C",
"d  c #3A2B2C",
"f  c #372828",
"g  c #342C31",
"h  c #3B2C32",
"j  c #352730",
"k  c #363134",
"l  c #3C3233",
"z  c #3C343B",
"x  c #3F393B",
"c  c #393737",
"v  c #43271D",
"b  c #432C25",
"n  c #432E2A",
"m  c #4A2E27",
"M  c #4A3127",
"N  c #45322B",
"B  c #4B332C",
"V  c #473328",
"C  c #53352C",
"Z  c #54392E",
"A  c #55382B",
"S  c #443434",
"D  c #4C3533",
"F  c #4D3933",
"G  c #42353B",
"H  c #443A3D",
"J  c #493A3D",
"K  c #473736",
"L  c #543B33",
"P  c #5A3D34",
"I  c #543E39",
"U  c #593F38",
"Y  c #523538",
"T  c #653E39",
"R  c #49403B",
"E  c #5D4136",
"W  c #55433B",
"Q  c #5C433B",
"!  c #59473B",
"~  c #63453B",
"^  c #65493E",
"/  c #6A4B3E",
"(  c #644438",
")  c #70533F",
"_  c #453D42",
"`  c #4B3E42",
"'  c #543D44",
"]  c #464143",
"[  c #4C4345",
"{  c #4C464A",
"}  c #4F4A4D",
"|  c #524445",
" . c #5C4642",
".. c #5D4A43",
"X. c #524549",
"o. c #544B4C",
"O. c #5B4D4B",
"+. c #58474A",
"@. c #5A504C",
"#. c #5C4D51",
"$. c #564D53",
"%. c #555152",
"&. c #5C5353",
"*. c #5E595B",
"=. c #5C5658",
"-. c #624741",
";. c #644C43",
":. c #6B4D43",
">. c #624D4A",
",. c #694E49",
"<. c #714F45",
"1. c #6D5145",
"2. c #65524B",
"3. c #6C544B",
"4. c #6A564B",
"5. c #725245",
"6. c #73544A",
"7. c #735A4D",
"8. c #785949",
"9. c #614E54",
"0. c #625355",
"q. c #6C5B54",
"w. c #635559",
"e. c #6A555B",
"r. c #645C5C",
"t. c #6B5B5C",
"y. c #685754",
"u. c #735C53",
"i. c #725B57",
"p. c #746256",
"a. c #75635C",
"s. c #7B655C",
"d. c #7B6659",
"f. c #726157",
"g. c #635D63",
"h. c #6D5D61",
"j. c #715D62",
"k. c #666163",
"l. c #6B6364",
"z. c #6D6966",
"x. c #6D6769",
"c. c #736364",
"v. c #7A6564",
"b. c #7A6669",
"n. c #746B6B",
"m. c #7D6B6C",
"M. c #776865",
"N. c #7C716D",
"B. c #76706C",
"V. c #7A6E71",
"C. c #766D70",
"Z. c #7C7473",
"A. c #7B7576",
"S. c #836B5A",
"D. c #91775E",
"F. c #816C6D",
"G. c #836A63",
"H. c #857164",
"J. c #83726D",
"K. c #8B776A",
"L. c #93796A",
"P. c #826E71",
"I. c #896E73",
"U. c #837273",
"Y. c #897575",
"T. c #847A76",
"R. c #8C7A74",
"E. c #857779",
"W. c #8B7779",
"Q. c #837B7B",
"!. c #8C7B7A",
"~. c #917D7B",
"^. c #947D74",
"/. c #8E817D",
"(. c #95817D",
"). c #9B847E",
"_. c #9B8576",
"`. c #9B806B",
"'. c #A58C78",
"]. c #A9927C",
"[. c #897F81",
"{. c #8D8483",
"}. c #8A8786",
"|. c #958481",
" X c #9A8683",
".X c #9C8A85",
"XX c #938C8B",
"oX c #9D8C8A",
"OX c #928786",
"+X c #9D918C",
"@X c #999188",
"#X c #988D91",
"$X c #9B9293",
"%X c #9A9595",
"&X c #A18B85",
"*X c #A18E8A",
"=X c #A4938C",
"-X c #A9958E",
";X c #A89789",
":X c #A49491",
">X c #A99691",
",X c #A59A92",
"<X c #AC9A93",
"1X c #A59A9A",
"2X c #B19E96",
"3X c #B19F99",
"4X c #BA9E90",
"5X c #B79D84",
"6X c #ADA19E",
"7X c #ACA099",
"8X c #B2A296",
"9X c #B5A39B",
"0X c #B9A69D",
"qX c #BAAA9E",
"wX c #B8A999",
"eX c #B5A08D",
"rX c #BDACA2",
"tX c #BCACAA",
"yX c #B5A9A5",
"uX c #BDB3A5",
"iX c #BDB2AC",
"pX c #BEB5B4",
"aX c #B0A7A7",
"sX c #A99EA2",
"dX c #C3AC98",
"fX c #C9B19F",
"gX c #C1AEA3",
"hX c #C5AEA8",
"jX c #C2B2A6",
"kX c #C4B5A9",
"lX c #C5BAAC",
"zX c #C9BAAD",
"xX c #C3B8AA",
"cX c #C3B5B2",
"vX c #CBBCB2",
"bX c #C8BCB9",
"nX c #D0BEB5",
"mX c #D1BFBB",
"MX c #D4B9A8",
"NX c #CEC1B5",
"BX c #D3C4BB",
"VX c #D6C4B8",
"CX c #D5C8C3",
"ZX c #DCD3CA",
"AX c #CBC3C5",
"SX c #ECD9CF",
"DX c #EBE2D9",
/* pixels */
"m.J.J.F.Y.Y.Y.W.F.F.F.j.F.F.j.I.g # x { 4 . O O * * $ * - # O c y O # # . # # & # & o $ & $ % $ $ $ $ % % $ = $ = $ $ $ $ = $ * ",
"J.U.J.U.Y.W.W.!.I.F.F.F.j.F.b.C.& . y { X { %.%.k # * $ $ 7 x %.k o _ %.y e } ] g & _ { t # & & % $ = $ # $ = $ $ $ $ $ $ $ $ $ ",
"J.J.Y.Y.W.R.~.~.W.F.F.F.m.b.P.w.o # z $.X *.*.*.k & = & . { k c c k x y g.e g.e *.9 g.z z . 7 - $ = $ $ $ = $ $ $ $ $ = $ $ * $ ",
"Y.Y.Y.R.~.~.R.~.~.W.F.F.m.m.[.h . 7 =.x.e { ] { ] - $ # # e { { } & ] ] y y %.k g.$ z _ j # e ] o % $ $ = $ $ % $ $ % $ % % $ % ",
"R.R.~.^.~.~.~.~.[.~.I.F.I.b.E.h > # $ o & o # o . & & 8 = # O $ . & o . # # . & o # # $ # * # . % = & $ $ $ % $ % = $ $ $ $ $ = ",
"Y.~.~.^.~.~.(.(.~. X|.P.V.V.V.} 8 $ = % & & 0 j g $ g _ # = - $ 9 # 9 k & & - - = 9 = 9 > = 9 g = $ $ % % = $ $ $ % * % $ = $ $ ",
"R.~.).~._.(._.).&X~. X[.V.E.#.8 . = # - # e } g.x # x _ . y *.x _ 7 *.%.x o & & . x _ y g 9 C.k } $ $ # = $ = $ $ $ % $ * % $ $ ",
"~.~. X). X). X&X&X&X X*XP.b.` _ * * - & # e A.} & $ e { , . [ z.. g %.c k O - & $ 7 { z ] - k.9 w.o 9 G # $ $ $ $ % $ $ & $ $ $ ",
"^.[. X X&X).&X'.&X&X&X*X*Xe.0 s > # = * # t g.g._ # j a 0 # = 8 & O e z 8 $ % $ $ $ a h a r A._ , $ > j $ $ $ $ % $ = $ $ $ % $ ",
"~. X(.*X X&X&X&X-X&X*X*X>X[.@ O # > # $ = $ 0 0 % & $ # # = % & - - # # & % $ $ = % # # o 9 x = o = $ # = $ # % $ $ # $ = $ # = ",
"W.[. X X&X&X=X-X&X-X-X&X:X6Xe.  % $ % = $ # & $ $ % % = = = & % = = = % > = % = % $ % = % # o & = = $ $ $ % % $ $ = = $ & * $ $ ",
"L.[. X X*X-X-X>X-X-X-X-X*X$X3Xf # % % # & % % = > % = > > % 8 8 = & = = = % > = > % % $ % % $ % $ $ $ = $ $ $ $ $ $ $ $ $ $ = % ",
"G.I.[.-X*X>X:X>X>X-X-X2X2X*X3XOXO = = = = % > % % = : = = 8 8 8 = = = > 8 = = % % = = 7 % % & % $ $ * $ % $ = = $ $ = = $ $ $ $ ",
"F.F.[.*X:X:X<X:X2X2X2X2X2X3X-XtX&.  , - > > = > : : = 8 8 > = 8 8 9 8 > = 7 7 8 8 = = % = = $ $ $ $ # $ # $ $ # $ # $ $ $ = % # ",
"F.I.I.*X*X:X>X2X2X2X2X3X2X2X<X<X6X, * - * < < < u w < : > > 0 8 9 > 8 9 9 8 8 8 8 = 8 = 7 % % % $ % # % $ = # = $ > $ $ = # . 9 ",
"F.I.I.[.:X*X<X3X2X3XyX3XrX9X9X2XtXT.* : < u f S i Y n 1 : : > : > > , > 8 8 8 8 8 = % 8 % 7 = & % # # $ = $ % $ $ $ - $ X 8 b.tX",
"I.F.U.V..X*X2X3X3XrX0X0X0XdXqX9X<XxX| ; u d V b b b m m B i b w 2 1 : : > 8 = > > = > = - 8 & = & = & & = $ % * = $   > c.tXmXyX",
"P.U.U.U.Y.:X:X2X3X0XrX0XrXrXqXrXrXyX<X; 6 V M m C ( P P Q -.-.L P C D i i 2 0 < < 1 + * 8 - 8 7 = - = & $ $ $ $   : t.cXCXrXtXhX",
"m.U.U.U.F.[.>X2X9XrXrXgXgXjXrXrXtX9XcXa.6 Q Q P ~ ~ ^ 1.6.7.6.,.~ ~ ~ U B m M I F N p i < : = * * $ $ : : * @ : z.tXCXcXyXkX3XY.",
"Z.U.U.U.F.m.*X3X0XqXgXgXgXgXgXgXrXuXrXjXW Q ~ ^ / / :./ :.1.6.6.6.<.<.( m C E E E Z P L B S N p p 2 n D f p c.cXBXlXkXkXnXhXp.! ",
"P.m.F.W..X-X2X3X0XrXgXjXkXjXuXkXrXqXlXs.L :.:.:.:./ <.A C P ;.:.6.<./ ( ( E 8.8.8.8.5./ ) / p.6.6.T A ,.I.hXBXvXvXNX@Xq.yXvX>Xi.",
"Y..X<X3X2X9X9X0XqXqXhXkXkXjXkXkXkXzX>XM Q ^ ~ ^ / ) 8.( v 5 v F F U T U ^ ~ 1.6.6.6.8.7.) 4.7.;.T T L.hXmXvXzXjX(.......a.mXrX X",
"9XyX3X3X9X9X0X9XqXgXgXjXkXkXhXkXkXvXd.L ~ ^ ~ ^ / <.5.5.P A V M I 2 : < 0 : 3 d f f u < 4 1 @ 4 s.hXVXzXMXrXK.2.W >.i. .p -XNX6X",
"2X<X0X9X2X0X9X0XwXjXjXkXkXzXzXlXiXNXu.L Q :.~ / / <.5.5.T A L B W +.* > - 7 - - $ - , * @ 4 r.aXnXnXvX8Xv.W W i.v.>.F W O.>.cXhX",
"2X3X9X0X0X0XrX0XgXrXjXjXlXlXlXzXkXNXs.I U P P ( / :.5.8.<.P Z B @.@.+ : - - 7 7 e - + 3 a.7XNXlXlX=Xt.! @.i.i.D q.>.q.l.&.3 p.vX",
"2X3X3X0X0XqXqXqXdXgXjXkXjXjXzXzXxXNXR.L U P P P T 5.6.<./ P Z b ! ..3 > , 7 e & O 4 r.7XiXNXqX_.s.! O.q.u.W >.4.q.i...K 3 R i.gX",
"3X9X0XyX0XqXrXdXjXjXjXkXjXlXzXvXvXNXqXL U Q ~ P ( <.<.<.~ P Z C V b S 1 : , # e r.,XuXxX,XN.E !  .;. .-.u. .W W N p 3 q.Y. XF.G.",
"4X9X9X0X0XrXrXgXjXjXkXkXjXzXzXlXNXzXNXq.C U U L Z -.6.7.7.1.:.:.Q Q L m : 1 r.+XuX7X'.p.! ! ! ! ;.Y -.U P 6 6 B p 6 b R s.4XG.2 ",
"3X0X0X0XgXgXgXjXjXjXkXkXkXzXlXlXzXzXBX<XB W -.P Z Z Z C C C Z Z Z L -.;.W *XrX3X/.p.! ! >...E W L V 5 ; v F b V 5 V Q p.q.p.F Z ",
"3XyX0X0XrXgXgXhXjXkXkXMXkXzXvXlXvXzXzXBXs.V P Z C Z Z E / 1.1.5.;.Q Q 3.! R.^.q.Q 4.p.3.2.>.! F < 1 B Z W u.W F q.Q H.0Xu.^.H...",
"9XrX0XgXrXgXhXjXkXkXzXkXzXzXzXzXkXNXzXzXCXa.b L P U T E E / / / ^ -.;.i.>.-.>.7.u.3.u.1.L b p W 5 R @.! 2.p.p.8X&XE 1.^.eXjX;XV ",
"0X0XgX0XgXgXgXjXkXkXkXkXxXzXzXlXzXlXNXzXlX..L Q P T ^ ~ E E A A C m C ~ s.1.q.7.,.;.;.B F V A R ^ W M.^ 4.V d.nXVX;X).).L.4.W ..",
"0XrXrXqXfXgXjXjXxXxXuXuXNXlXlXlXxXlXvXVXY.F ;.U Q ( :.5.8.8.5.^ ( -.U B P s. .U I Q F  .-.W 2.u.W 4.W ) 7.4.p.7.L._.R p.L ! 2.W ",
"0XqXqXfXgXjXkXkXzXxXNXNXlXlXlXNXlXNXvXNX..U U Q P P ~ / 6.6.1.~ T Z U L B -. .D ;.s.Q ~ -.I L 3.4.p.K.;X8.L.) 4.H.W F a...K 3 f.",
"9XqXgXgXjXkXkXMXzXzXlXlXlXlXlXlXNXxXvXkXW D Q U P E ~ :.1.1.1.^ P ( P U  .~ -...Q I q.;.;.3.H.D.K.d.7.D.MX4X`.d.q.! K W 1 l @XpX",
"9XrXgXgXjXjXjXjXxXzXlXxXNXlXlXlXuXNXkXVXq.i B Q P Q ~ ;.1.5.3.<.~ ~ ~ ~ ~ -.3.>. .3.u.p.7.S.SX'.1.D.p.'.fX_.K.p.p i f s [.@XAXpX",
"0XgXhXjXjXjXkXzXzXzXzXlXlXlXlXlXNXuXxXVXR.6 V W P P U ( -.^ :.:.5.<.<.:.;.~ :.q.u.1.u.S.S.S.D.`.d.7.`.].`.`.d.@.m.T.#X!.1XCX$Xo.",
"9XqXgXgXjXjXzXzXxXzXNXzXlXlXlXlXuXNXxXNX<XV N L L U U Z U U T -.<.5.6./ ( :.;.1.7.p.u.S.8.D.'.].'.dXwXeXNX7X7X7XrXtX{.#Xw.r.S #.",
"9X0XqXrXgXjXkXkXxXxXxXxXlXlXxXxXxXxXxXNXvX2.i N L I I Z Y P U U ^ 6.5.<./ 5.<.:.3.3.S.S.`.`.dXD.( ].fXSXZXNXd./.m.c.w.S ` G 0.#.",
"9X0X0X0XqXfXkXkXxXzXxXxXlXxXxXNXuXxXuXuXNXrXN 6 B L Y D C B C Y P T / 5.<.) 5.:.1.6.S.S.) S.) ) ].wX5XwXH.d.`.f.M.M.j.E.e.[.$XG ",
"2X0XrXrXrXgXhXhXjXlXlXlXlXlXlXiXlXxXuXlXuXNXwXR 4 p R V B B b C C P ( / / ) ) ) 5.<.8.u.7.3.'.VXuXwX8X_.>XZXDXZXcXpXm.c.W.[.oXe.",
"2X9X0X0XyXgXhXjXjXlXlXlXlXxXlXuXlXuXuXlXuXuXlXlX..5 v b n V B m m F E ( ( ) ) ) ) <.:.<.^.gXnX2XwX'.NXyXiXZXZX6XT.n.F.j.I.#.` Y ",
"<X2X3X9X3XyXrXrXjXjXjXjXlXzXzXlXuXlXxXxXlXlXuXlXwXl N V b p 5 b m B Z ( / / / ) :.<.6.~ 6.hX<X2XNXuXNXuX9XCXV.h.J.e.+.j.e.Y Y Y ",
">X<X2X3X9X9X9XrXqXwXuXuXuXjXxXxXxXuXuXwXuXuXuXlXNX).i V b b b 5 6 M B Z ! ~ ( ) 5.6.:.:.U s.=XvXSXDXCXiXpX}.P.cXDX3XI.F.I.e.' n ",
">X>X2X3X3X3X0X9XqXyXuXjXuXuXuXuXuXuXuXuXuXuXuXuXqXvXy.i F E Q L m 5 b V C ! ~ ;.1.:.1.~ E ! 9X>XwXNX%XN.r.w.[.OX[.I.e.' ' Y j j ",
"*X>X>X<X2X2X2X2XwXqXwXqXwXwXuXuXuXuXwXwXwXwXwXwXuXkX*XM F Q / ^ ( M M 4.4.b F E E ( / ~ W F >.t.r.f.&.o.#.$.` H j : q w 0 q 0 q ",
"*X*X=X=X-X<X2X<X8X8XwXwXwXwXuXwXwXwXwXuXwXwXwXwXyX9XkXK.b L ! ^ ~ Q B s.lX(.N b M E E ! L F ;.y.&.&.&.&.' $.' ' ' Y j h m h j h ",
" X*X&X*X-X-X>X<X;X8X7X8X8X7XwXwXwX7XwXwX7X7XwX7X8X8X2XjXd.b Z E E ( C q.2X9XJ.i F C L E Q Z B O.! [ | | _ z h S q q i q q q q q ",
"[.&X&X*X-X[.4X4X[.4X4X[.4XhX4X3X8X<X9X<X8X8X8X8X8X,X8X,XqXQ M Z P E b p.8X;X7Xy.! F Q ....~ Z P 2.S s l s g j s r 0 < < < < 8 0 ",
"[.&X[.[.[.4X[.5X4X[.4X[.4X[.hX[.<X>X>X<X,X<X>X,X,X,X<X,X7XK.5 C C F b s.3X;X@X(.a.q.K ! ;.( P m | 0.| ` _ x g g s a u < < 8 > > ",
"[.[.[.[.].[.[.[.[.5X[.4X4X[.[.4X-X:X=X-X-X@X-X=X+X;X+X;X7XH.b L E L b 4.,X+X'.@Xz.F p F I E ( F B O.b.m.n.n.l.l.r.0.O.X.' ` G S ",
"^.[.^.[.^.[.[.[.[.[.[.&X[.4X[.[..X.X*X.XoX=X.X.X@X@X@X@X,Xs.M I E W V ..-X(././.T.K p i b F F P N p 2.K H | O.&.0.t.c.c.j.b.j.j.",
"L.I.I.[.I.[.[.I.[.[.[.[.[.[.&X&X X X X XoX.X(.|.(.|./.(.@XG.b B F F n B )././.T.J.a.R O.p i m S B p N o.i s u s u u f d h h G ` ",
"I.I.I.I.F.I.I.[.^.I.[.[.[.[.[.^.~.|.[.|.!.!.(.!.OXN.@XT.).R.p C B n 6 i B././.B.M.a.0.N L u 2 i b ; q.W s s d d f h d a a t t t ",
"G.e.F.j.F.F.F.I.I.I.[.hXF.I.I.I.E.N./.Z.T.OX}.N.+Xz.|.B././.R 3 i W 0.3 B.).Z.B.Z./.S N.T.S d : s @.,Xk s k.H d S j d j j j a j ",
"e.G.e.F.e.F.j.j.G.G.[.3Xe.I.I.4XO.yXQ.aXl.N.6XQ.}.z.Q.}.B.@Xl.; @.+X&.3 @.7XZ.XXZ.}.*.T.OXd G S XX&.}.{ @X} %XH h h d d d j j a ",
"e.e.e.h.h.j.h.c.G.e.I.tXe.j.I.I.h.AXC.x.T.n.sX@X}.k.}.x.7XZ.z.l N.Z.  | T.}.Z.XXR z.n.%.w.f j o.%XX Q.n.}.X 1X_ u S h a h h a n ",
"9.9.9.9.e.w.w.t.e.e.j.[.e.g.h.g.w.[.XXh.Z.XXQ.c.n.&.l.o.NXr.a.r.3 /.N.O.+Xn.o.&.H @.o.] 1XH s a A.[.C.0 C.OXl.+ > 8 0 q w q q 8 ",
"9.' #.#.#.9.#.#.' 9.e.' 9.9.w.#.w.9.0.=.r.0.+.0.&.r.o.T.}.%.y.a.J @ u + 3 l l s s s a s s d h s t j 0 : $ 0 * < > + + + + $ o + ",
"' ' ' +.` ' | ` [.j.' +.h.e.#.$.9.9.r.&.o.r.$XX.0.#.x.l.{ o.y.&.| + + : * s , ; - d s r r t 0 u s u w u + $ 1 - : > : + + + + : ",
"' ` _ ` [ X.6X_ %XA.*.] g.X.} j.%.#.X.%.z.*.tXl.l.[ w.{ %X*.@.l s c } , @ R H O O , s _ o.k %.y , [ X.* : s * s J $ - 1 : : 1 + ",
"_ z G _ G %.AX_ XX}.%XA.g.=.%XA.l { | iXz.R pXz.$X%.A.o.NX} s - B.A./.B.w.B.A.&.+ - #XA.%XXXQ.g.%.A./.=.XXZ.@./.XXl.@ - : + : 1 ",
"G G G h k [ aX- sX%.z.}.k.*.$.#Xz.G R k.}.z.6X4 Q.=.}.] %X- s + Z.c H @X%Xe k }.O - 1Xy A.n.c z.Q.e %.XX%Xr l.Q.] ] * 0 , r 0 0 ",
"h h h h k k XXz.A.%.g.n.*.} g.#Xl.y _ k.XXz.}.y n.{ A.- @Xk.- - r.l ] B.] }.Q.H - - A.c l.r.c %.} }.}.c Q.k k {.z.] *.r.g 9 u 0 "
};
