/* XPM */
static char *_5bd2258cd22413a881b16ed78b5149ddFezOwIog6fnpFcP[] = {
/* columns rows colors chars-per-pixel */
"64 64 256 2 ",
"   c #321508",
".  c #321D16",
"X  c #520F04",
"o  c #651707",
"O  c #77150A",
"+  c #542A10",
"@  c #652606",
"#  c #782615",
"$  c #713110",
"%  c #57352A",
"&  c #753226",
"*  c #774517",
"=  c #5A412B",
"-  c #704E31",
";  c #7A623C",
":  c #765449",
">  c #736557",
",  c #821809",
"<  c #8A1815",
"1  c #862617",
"2  c #902F18",
"3  c #973529",
"4  c #8F2F2A",
"5  c #A83939",
"6  c #AB2F2E",
"7  c #A22B1D",
"8  c #CA3C39",
"9  c #D23B3C",
"0  c #8C4B15",
"q  c #884727",
"w  c #8C4E36",
"e  c #875936",
"r  c #985636",
"t  c #96502A",
"y  c #AB5135",
"u  c #8F6836",
"i  c #A96737",
"p  c #B5673A",
"a  c #AA6F34",
"s  c #CC4438",
"d  c #C6723A",
"f  c #B03C47",
"g  c #8E3E5B",
"h  c #CC3A42",
"j  c #8F5150",
"k  c #AB4B50",
"l  c #916B51",
"z  c #A96749",
"x  c #BA6946",
"c  c #A87A48",
"v  c #B97548",
"b  c #A76956",
"n  c #A67857",
"m  c #B77957",
"M  c #B66756",
"N  c #945966",
"B  c #B1556A",
"V  c #97726D",
"C  c #BA7B67",
"Z  c #A77977",
"A  c #AB706C",
"S  c #CC4C4C",
"D  c #C57A56",
"F  c #CD734D",
"G  c #CE7A6D",
"H  c #F46E6C",
"J  c #D35462",
"K  c #AD8D3C",
"L  c #BA8548",
"P  c #A98358",
"I  c #B98857",
"U  c #BA9755",
"Y  c #AE9348",
"T  c #BDA658",
"R  c #B88868",
"E  c #BC9468",
"W  c #AB897D",
"Q  c #BA8777",
"!  c #AE926E",
"~  c #BDA86F",
"^  c #9D8A6E",
"/  c #C68748",
"(  c #C89548",
")  c #C68658",
"_  c #D4875B",
"`  c #C69557",
"'  c #D79859",
"]  c #D3844B",
"[  c #EC9258",
"{  c #C6A558",
"}  c #D6AC5D",
"|  c #D8B25C",
" . c #C4B152",
".. c #EEA759",
"X. c #C98766",
"o. c #D68867",
"O. c #C79967",
"+. c #D89869",
"@. c #C48977",
"#. c #C89978",
"$. c #D59876",
"%. c #D88876",
"&. c #E4886A",
"*. c #E89969",
"=. c #E78B73",
"-. c #E79876",
";. c #F59879",
":. c #F78F6E",
">. c #C8A969",
",. c #D6A867",
"<. c #D6B869",
"1. c #C9A879",
"2. c #D9A677",
"3. c #CBB674",
"4. c #D7B977",
"5. c #C6B569",
"6. c #E8A669",
"7. c #E8B669",
"8. c #E7A578",
"9. c #F6A67B",
"0. c #E8B978",
"q. c #F6B776",
"w. c #F6A86A",
"e. c #D7C672",
"r. c #E6C76D",
"t. c #E6C779",
"y. c #F4C87A",
"u. c #EAD579",
"i. c #F3DC7C",
"p. c #F9DC7B",
"a. c #EFDF6E",
"s. c #F5E47C",
"d. c #FCE57D",
"f. c #FCEA7D",
"g. c #F6E778",
"h. c #EDE979",
"j. c #AF7C84",
"k. c #CD798D",
"l. c #A88888",
"z. c #B88887",
"x. c #B79898",
"c. c #B78F91",
"v. c #BAA78D",
"b. c #BC9BA3",
"n. c #C78A87",
"m. c #C79987",
"M. c #D89887",
"N. c #CD9795",
"B. c #D79998",
"V. c #C48E95",
"C. c #E89684",
"Z. c #F79D84",
"A. c #FF8986",
"S. c #C7A787",
"D. c #D8A788",
"F. c #D7B987",
"G. c #C6A699",
"H. c #D7A797",
"J. c #DAB597",
"K. c #C9B78D",
"L. c #E8A986",
"P. c #FCAC84",
"I. c #FCAE8B",
"U. c #F6A785",
"Y. c #E8B789",
"T. c #FDB38B",
"R. c #F8B788",
"E. c #E6AA97",
"W. c #FBAC91",
"Q. c #E9B795",
"!. c #FCBA94",
"~. c #FEBC9C",
"^. c #F6B796",
"/. c #CC99A4",
"(. c #D7AAA7",
"). c #D6B4A7",
"_. c #D1AEAF",
"`. c #E7B7A5",
"'. c #E9BBB8",
"]. c #F5B8B0",
"[. c #E99EA5",
"{. c #DBC686",
"}. c #DCC697",
"|. c #E8C886",
" X c #F8C688",
".X c #E8D588",
"XX c #F4DD85",
"oX c #FCDC8C",
"OX c #F8D988",
"+X c #E9C595",
"@X c #FEC49B",
"#X c #FECC9D",
"$X c #F8C795",
"%X c #EDD595",
"&X c #FDDC94",
"*X c #FDD39B",
"=X c #FCDB9C",
"-X c #F7D897",
";X c #F5E382",
":X c #FCE584",
">X c #FDEA84",
",X c #F5E48D",
"<X c #FCE68B",
"1X c #FDEA8B",
"2X c #F6EA84",
"3X c #FDF187",
"4X c #FDE592",
"5X c #FEEB94",
"6X c #FEE49B",
"7X c #FEEC9C",
"8X c #F4E598",
"9X c #FDF296",
"0X c #EDE48D",
"qX c #DBC4AD",
"wX c #EAC7A5",
"eX c #FECDA2",
"rX c #F7C8A5",
"tX c #FDD3A3",
"yX c #FDDDA5",
"uX c #FED3AB",
"iX c #FEDCAB",
"pX c #F4D8A6",
"aX c #E9C4B9",
"sX c #F7C7B8",
"dX c #FEDCB3",
"fX c #F8D9B6",
"gX c #E7D3AA",
"hX c #FEE2A3",
"jX c #FFEBA3",
"kX c #FEE3AB",
"lX c #FAE8A9",
"zX c #FFE4B3",
"xX c #FEEBB4",
"cX c #FFE4BA",
"vX c #FFECBB",
"bX c #F4E6B5",
"nX c #FFF2BC",
"mX c #FFF3B6",
"MX c #F8EFAD",
"NX c #EABEC5",
"BX c #F9CAC5",
"VX c #FBD7CB",
"CX c #FDD8D8",
"ZX c #F0CBCF",
"AX c #FEE9C6",
"SX c #FEF3C4",
"DX c #FCF7C9",
"FX c #FFE7D8",
"GX c #FEFAD4",
"HX c #FBF7D7",
"JX c #EDF6CF",
"KX c #FFDBE5",
"LX c #FFEBE9",
"PX c #FCFAE8",
"IX c #F8F9ED",
"UX c #DEC5C8",
/* pixels */
",X,X4X,X<X<X<X4X4X4X4X4X4X4X4X<X4X4XoX<X<Xd.;X<X0X0XlXmXpXlX%X{..X8X-X7XjX&XyX=X8X,X3Xh.g.s.oX<X<X:X<X<X:X<X:X:X:X:X:X:XXX:X:XXX",
",X,X,X<X<X<X<X<X<X4X4X4X4X<X4X<XXX5X<X<X1X5Xh.5X7X6X%X4.F.}.1.{.~ ~ 5.T 3.&XkXkXjX8Xh.f.f.:X5X4X<X<X<X<X<X<X<X1X<X<X<X:X:X<X:X<X",
",X,X<X<X1X<X<X<X<X4X4X4X4X<X<X<X3X1X1X,X4X0XMX.X>.c c P %XQ.pXgXfXbXMX8X{.5.~ .XpX,X5X:Xp.<X6X&X<X1X<X<X1X1X<X1X<X<X:X<X:X:X:X<X",
"5X,X,X4X<X1X<X<X<X4X<X1X1X<X,X1Xs.2X;X9X8XlX{.}.E >.` 2.e * e u l W K.gXnXnXbXF.5.4.,X<X5X:X&X6X4X<X>X<X:X<X:X1X:X<X:X<X:X:X:X:X",
",X4X4X1X1X<X<X<X<X<X<X<X1X1X1X1X2X>X5XlXpXK.qXP O.yX X$X XI - u e - = % > v.GXmX8X.XT t.jX<X8X,X<X<X:X<X<X:X<X:X:X1X<X:X<X:X:X:X",
",X4X,X4X5X<X1X1X2X1X<X<X,X1X,X1X>X<X8XpXK.W = & #.O.yXoX6XMXhX1.,.2.D.^ - . = {.nXnXpX~ e.MX.X,X<X<X<X:X:X<X<X<X:X:X:X:X:X:X:X:X",
"4X4X,X<X,X1X<X2X:X:X2X2X1X,X2X,X1X,X6XK.l + & n R e Y 5X7X7X=XiXY.L.Y.Y.{.^ = . > fXDX8X3.~ 9X1X:X<X:X<X<X<X:X:X:X:X:X:X:Xf.:X:X",
",X<X4X4X<X<X,X1X:X2X:X2X2X2X1X,X,X4X4.u l J.D.R I  X<.e.7X7XjXhXzX|.t.%Xu..X}.> . = gXMX9XY e.>X;X:X<X:X:X<X:X1X<X:X:X:X:X:X:Xf.",
",X<X<X,X4X<X<X2X:X;Xs.>X;X1X5X;X1X.XY {.xXyXY.R.I yXjX.X5.8XkXhX6XjXt.r.5X%XpXgXl   = gXkX|.Y f.:X:X1XXX1X:X:X:X:X>X:Xd.:Xd.>Xf.",
"1X,X<X4X<X<X1X;X2X>Xf.>X;XXX,X7X.Xe..X7X.X-XY.#X` ` -XhX3.>.-X=XOX4X<Xr.t.4X&XyXJ.>   l vX=X} r.<X:X<X:X1X<X:X:X:X:X:X:Xd.:X:Xf.",
"<X:X5X<X4X,X<X1Xs.f.f.:X1X<X5XOX4..X0X0X8X.Xt.0.a p / mX|.>.0.y.OXoXOXoXy.q.y.&X6X}.%   J.xX0.| 4X<X:XXX1X:X>X>X:Xf.:Xs.>Xd.f.s.",
"1X<X<X<X4X5X<X1X>X:X:X:X<XoX4X4.5.}.MXe.7X.Xt.7.t d i 2.0.` OX' 7.7.q.q. X6.y.q.&XyXE   e iXOX,.<X1X:X:X1X:X:X>Xf.:Xf.:Xd.d.:Xd.",
":X:X<X5X4X5X1X2X>Xi.>X1X:XoX&X>.>.tX{.{.7Xe.2.q.a ] ) ` / { =X( / D x T.q.q.( } *X$XF.- + rXOX<.i.1X:X:X1X:X:X:X:Xd.d.f.f.d.f.d.",
"2X<X<X<X<X5X,X1Xf.d.>Xp.oX7XOXL +.yXY %XjX5.L q.*.T.!.@XI `  X*.t i z r ] 6.' L R.$XL.L + F.%Xt.r.5X:X:X:X:X:X:X:X>Xd.d.d.f.d.f.",
":X2X<X4X4X4X<X<X:X>X1Xs.<X5XU t ' 0.U OX-X0.t 8.-.rX@XQ.+Xv _ 8.y r z q w b m D ) *XU.) @ ` *X0.<.1X:X<X:X>X>X>Xd.f.d.f.f.d.f.d.",
":X2X1X<X<X4X<X:Xf.:Xs.:X9Xu.u a ,./ U OX0.8.i M C M.J.+XcXD.r $.v z L.Z j : & w v @X8.v @ ' &X7.{ 1X:X<X:X:X:X:Xd.:Xf.d.d.f.d.d.",
"1X<X1X<X1X1X2X2X>Xa.3X:XOXY e.>.,.L L q.7.*.v & % = > l.aXfXP wXD.l : : .   % + w ~.+.i $ } q...( XX1X1XXX1X:X>X:Xd.d.d.p.d.d.p.",
":X1X;X1X1X;X1X:X:X:Xd.i.u.e.%X>.$Xc a 7.q.' z l l.: . . ).fXwXfXfXS.W l.> > l.Q n 2.$X0 0 [ y.' ( | 4X<X1X2X>Xs.>X>X:Xf.d.d.p.d.",
":X;X<X<X1X1X<X:X:X>X:X1XXX5X8X3.R.p 0 / w.F x z '.G.^ l.JX! 1.D.n Q.ZXv.b.qXG.j M ^. X0 d [ ..[ ' ( u.4X1X;X2X3Xg.h.g.f.f.f.>Xf.",
"f.:X2X1X1X1X<X:X:Xp.:X:X:X4X5XOXY ` ` / d F F k l N.).v.v.^ #.Q.wXS.v.K.v.x.N.@.M I.y.] d F :.[ ..( } oX1X1Xg.2X2X3Xf.f.f.f.2Xs.",
"f.:X:X1X<X<X<X<X<X:X5X:X1X1Xi.<.{ hX,.` i y T.x o.D.H.wXqXfXQ.Q.AXAXzXbXfXAXsXC M.L.q.L d ] [ d q.( ( 7.<X<X1Xi.:Xf.f.g.g.h.h.h.",
":Xf.:X1X1X1X<X1X:Xd.d.p.p.3X>XXX9XjX4.>.p d $X2.) zXDXAXnXSXpXrXAXbXxXcXAXwX#.z ) L.,.p d F [ &.6.q.( ( 7.oX5X<X:X:X:X>X2Xh.2X2X",
":Xf.2X>X2X2X2X>Xd.:X>X1X>X:Xs.:X4X-X0.R._ p $X Xp v Y.DXbXzXvX+XS.xXiX#X+XY.z t O.Y.0.q./ i +.-._ q...' ( 0.p.<X<X<X1X1X>X:Xf.f.",
"<X:X;X>X>X2Xf.f.>Xf.d.d.:Xp.<X<X5X|.Y.$.D D  XoX' i i ) Q.zXyXkXtXtXtXD.m #.8.m W.2.+.+.@X0.X.L._ 6.9.[ *.' 6.,.7.e.t.i.p.oX:X:X",
"<X<X:X;X3Xg.g.f.a.3Xf.f.<XoX<X4X<X>.Y.I a ) |.&X*.d d S y D -.U.T.9.v x G P.o.o.P.T.~.$.^.uX+X$X$X` 8.6.*.] ' +.{ ,.{ e.r.| a.oX",
"XX<X<X2X3Xh.h.f.f.g.>X>X<X7XOXOXU ,.O.E X.m %X X..d d F F x D S s y F =.W.G v D +.$.+.$.^.rXpXpXkXY.` 2.8.o.p +.8.,.<.U Y 7.| 7.",
"4X4X:X;X>Xg.h.g.>Xi.XX4XOX=X4.` 0.R.tX#X2.e yXR.[ d y d 0 i *.x F F Z.A.G =.*.) +.R.%.Q.AXfXzXxXkXDX1.2.R.8.+.` 3.hX6X&X4X| ( 7.",
"oXoX:X:X>X3X1X1X5X&X6XjXkX,.4.+XeXdXcX+XI O.yX,.' F [ $ * L.~.I.*.:.;.&.=.Z.v m 8.Y.L.E.R wXzXxXmXnXvXY.Q.eX@X2.O.{ |.%X&X9Xy.{ ",
"4X<X:Xp.i.r.t.e.|.%XF.U z P +XiXdXfX}.~ +X2.2.8.) +.0 q kXyXuXeX!.-.=.=.;.o.$.Y.c + $.X.uXpXiXvXxXMXSXzXJ.uXuXY.+.2. X|.t.OX4X<.",
"y.7.| } <.|.-X=X|.R n n n Y.eXdXfXbXbXzX1.+.%.D #.$ m $X1.2.2.#.dX@X) D p x 8.$.O.+ O.^.D.2.2.uXxXDXbXvXpXY.uX!.8.*.+.*Xy.<.9X0X",
"( ( | p.&X6X+XK.n Q sXm.J.Q.uXdXAXAX}.>.D x &.$.$ Q uX#XxXkX-X#.F.^.z / F *.%.2.uXR L.U.8.U.*.L.zXpXnXxXSX+XL.eX8.;.w.*. Xy.e.2X",
"..w.p.y.7.>.E I `.PX).m.M.Q.$.D.H.F.R n ) I.Z.1 E +X+XtXiXkXzXvXzX+XtXtXo.o.D.Q.J.R m U.9.9.:.o.L.uXxXcXiXdXF.^.P.*.*.q.q.t.e.| ",
"..q.<.~ { |.5X%XF.HX_.Z E.C X.-.%.z n F.tXY.* O.+X X X$X-XjXyXxXiXzX%XiXQ.l ~ pX+Xn q T.;.Z.:.:.G o.Q.iXcXzXQ.2.q.-.T.9.6.q.7...",
"[ d { u.7X,Xi.4X1.cXUX> A D X.x r -.uXfXP - Q.zXtX*X#X*XpXlXyXkXkXpXrXpXnXP }.SXcXJ.q L.Z.:.;.:.;.F M Y.yXzX*X8.9.*.9.9.i 8.w.w.",
"a ' s.1X1X,X7XOXc R CXN w G w r E.rXcXl ; cXvXiXzXkXhX-XhXlXkXkXkX-XiXiXJX{.v.bXbXbXu Y.!.9.*.9.-.y D @XkXkXdX^.9.*.-.P.$.o.....",
"Y u.3Xf.i.<X7XU I X.'.z.C q z rXfXsX; > AXDXAXSXvXxXzXlXpXlXxXxXhX-XxXxXzXDXK.bXDXDX^ P #XL.U.@X*.2 o.L.yXkXdXuX+.*.;.8.@.~.' ..",
"e.,Xs.d.d.1X4.c q.8.C NXR #.rXwX@.- - JXHXDXHXAXSXvXxXxXbXxXnXxXyXjXMXmXSXDXGXHXAXHX).u uXR.P.;.U.t D %.*XkXdXdX8.-.+.L.A E.8.+.",
"h.1X>Xp.d.p.` 4.=Xi G n.H.`.#.4 +   qXPXJXHXHXAXSXSXxXxXdXxXSXkXyXkXmXDXJXJXPXFXPXLXFX- D.uXT.;.9.o.r O.*XiXzXdX^.o.L.C n.].L.) ",
">Xd.:XoX:X| L &X_ i G N.'.b o o $ X ^ PXHXGXGXGXDXnXzXiXpXiXxXtXyXiXnXJXJXPXHXIXIXLXJX- l wX!.I.P.I.w z +XiXiXiXuX#.n B.CX].E.J.",
"d.oX4X6Xy.K ,.0./ y M.[.5 X 1 7 3 o > GXHXGXGXDXSXnXiXuX$X#XyXY.tXnXnXJXJXIXIXIXLXIX_.X + w rXY.-.eXm e rXdXzXiXzXJ.M.FXFXBXsXBX",
"r.1XjX-X>.5.` ' a o.].< O 6 s 8 8 3 + fXHXDXDXDXvXzXtX@X X@XR.Y.*XxXSXSXHXPXIXIXIX'.o & 4 o & 8.!.~.D.- rXuXkXyXvXpXG.CX].S.l.l.",
" .<.%XT 4. Xa / i Q.O O h 9 9 9 9 S # R AXAXvXzXzX#X@X!.R.T.8.Y.*XyXzXAXHXJXJXPXZX& O f s s O 0 !.^.Q.b D.dXkXxXfXcXwXn Q N l V ",
"u.0X.Xc R. Xp p c 2 O y 8 9 J H H 9 7 # wXdXfXdX#X!.T.T.P.P.w.9.$XtXzXzXdXGXHXaX& 4 h h 9 s s , r E.sXA D.xXzXzXkXxXwXQ Z _.LXb.",
"1X7X{.c  Xq.p F $ X < 7 7 9 S A.J 9 s 2 r wXuXQ.!.~.T.9.9.9.;.9.R.R.$XuXcXAX#.$ 3 J H h S s s 7 X M.sXN D.iXzXzXzXkXxXfXV c.x.qX",
"XXoX3.I w.w.d F z   O , < < 3 3 7 7 5 5 @ n Q.E.Z.Z.Z.=.P.9.&.Z.~.@X^.eXQ.z $ 2 5 S :.S 6 y 7 2 @ : V.N D.rXzXxXxXhXkXrXB.z.l.).",
">X4XT ` } F x D iXu 1 2 7 < < 1 , O , O # o j C.Z.&.;.o.T.!.G ;.Z.^.E.C $ @ $ , O O , 2 7 < O # # X N A H.uXkXyXkXmXzXuX`.C aXv.",
"a.3X5.>.y.v x X.6X4.r 5 6 6 5 2 < 1 1 # # # o q =.=.=.G @XeXG H C.G & X @ # o # O , 1 , 3 y 4 5 4 % : N M.rXyXhXlXlXiX@X~.C (.aX",
"g.>XXXT &X` t $.7XOX$.B f f 5 k 3 3 4 < 4 1 1 o O F G L.FXfXW.F & X o # # # 4 # 1 3 3 5 S f f f B & Z N n.^. XyXkXiXuX~.~.R `.LX",
"s.>X>Xf.r.4Xu 3.=X4XyXr k k k k f 5 f 6 6 6 1 q # X o j b C r X X & 1 2 1 4 4 4 f f h f f B J B : Z V R E Y.0.tXtXuX@XT.^.#.sXFX",
"i.>Xg.g.1X7XK >.jX&Xt.L z G j k k f B f f g 5 # 4 e M.`.E.`.Q.H.B 4 4 2 t 3 y f f f J h J J N j N b n uXc P ^.U.~.eX!.U.C.@.VXCX",
":Xd.d.g.:X<X5.K mXu.K Y.fXB [.k.A j g g B B A n.n.@.n.m.E.B.E.`.B.j.N j j w B k g B J j.B g j z.R P gXzXD.e Q.L.E.W.W.L.M.E.BXCX",
":Xd.f.g.:X1X5XU Y Y {.iX`.j.j.j.n.Z n.A j.j.B.V.J.Q.n.BXsXn.: z.n.'.].CXNXn.k.k.k.B g N Z j.c.Q n -XhXyX+XI n H.E.C.E.%.G BXBXZX",
":X:Xg.a.f.u.e.4.T .Xe.P ; _./.l./.NXN.NXUXUXj.G.LXG.M.H.H.z./._.N.V W V c.b././.k.k./.KX'.V b R &X<XOX4X-XE D.l @.[.].@.B.sXBXCX",
"XXp.d.f.>XXXXX7X9X0X~ }.: G.UX/.j.BX'._.NXb._.LXaX).C j b : ZXLXLXx.l.z.j.k./.[.KXKXZXj.> : l F.oX>X:X5X6X{.wX`.b Z n.A BXaXaXFX",
":Xd.>Xf.p.:X<XXX9X0X{.bXZXl.j.b.N.G._.UXx._.CXCX'.`.M C.G j '.KXLX_.: /._./.c.j.j.j.j.j.c.~ ! U 5Xd.d.d.1X5X|.wXFX(.c.(.sXwXrXF.",
"<X:Xd.d.f.>X<X<X2X0X%Xv.JXKXb.c.W (.VXZXx.IXUXUXVXC.=.=.C.G B.ZXZXLXj.N /.ZXKXZXUXZX_.b.1.Y.yX7.<.p.f.d.>X1X6X%X`.VXBXVXwXwX3.|.",
";X:Xf.f.d.:X:X<X9X4XhX! wX'.UXNXM k @.A z.FX_.aXsX%.-.;.Z.$.(.).aXZX`.@.G M M.C.E.#.1.{..X4XoX<X<X:Xd.f.f.f.,X6X%X}.fXfX1.4.7XoX",
";X:Xd.d.:X:X:X:Xi.5X%XS.m.LXNX].G G C.M.H.FXaXsXE.L.9.9.U.D.m.G.).qXH.Q.^.;.G t r i =X<XXX:Xp.:X:X<X:X:Xf.g.>X1XjX-X{.F.|.OX<X;X",
";X;Xf.f.:X>X:X:X>X1X=XR `.'.BXC.A.;.;.E.D.`.J.H.^.~.9.;.T.rXJ.G.).sXH.wXQ.T.I.;.F ,.6XXX3X3X:X:X:X:X>X<X2X:Xf.>Xs.9X,XXX5X1Xi.f.",
";X;X>X:X:X:X>Xd.:XoX=XO.b G M.E.=.P.U.W.$.S.gXAXdXeXT.8.U.$XcXwXJ.J.J.bX*X XT.;.9.+. X1Xu.3Xd.p.:X:X:X<X<X:Xf.f.s.f.f.f.:X:Xd.g.",
";X<X>X:X:X>X:X:X:X5X&X2.@.@.~.U.;.9.P.eXuXcXcXdXuX@X9.-.U.^.zXzXAXrX+XhXhX*XR.9.9.7.<.9X3Xs.>X>Xd.d.<X<X<X<X:Xf.f.g.g.g.i.>X>Xg.",
":X:X>X:X:X:X:X>Xd.<X0.O.^.].U.-.P.I.T.~.^.iXiXkXiX@X) =.I.#X*XkXkXpXmXyX*X$XT.q.;. X3.5.9X1Xp.d.d.f.<X<XoX<Xd.d.g.f.3X>X>Xd.d.d.",
":X:X:X:X:X1X>X:Xg.9X>.O.^.W.R.I.9.9.W.^.eXuXpX*XtX#X%.=.U.~.$XhXyXkXxXpXtX@XT.9.;.-.#XF.4.MX2X2Xs.f.:X<X<X<Xd.d.g.f.XXp.:X:Xg.g.",
"oX:X1X:X<X>X:Xf.>Xu.` +XL.~.$XT.P.P.I.^.~.%X-X*X#X~.U.Z.U.T.#X$X8XlXpXpXeX!.P.9.;.Z.$.dX{.3.9X2Xs.f.>X<X:X:Xd.f.f.f.<X<X:Xd.f.g."
};
