/* XPM */
static char *bdff8f9140ca46dec780ad86b819ee3bo7ZSZq9bbATALNrW[] = {
/* columns rows colors chars-per-pixel */
"64 64 250 2 ",
"   c #07070B",
".  c #080B15",
"X  c #190D17",
"o  c #0B131C",
"O  c #180E11",
"+  c #26171B",
"@  c #2C1714",
"#  c #39281B",
"$  c #1B1C2A",
"%  c #171826",
"&  c #191D32",
"*  c #0F1425",
"=  c #261C2A",
"-  c #261D32",
";  c #1C212C",
":  c #1B2336",
">  c #23222B",
",  c #372B27",
"<  c #3C3228",
"1  c #242334",
"2  c #2C2334",
"3  c #2B243A",
"4  c #27293A",
"5  c #342839",
"6  c #3B3639",
"7  c #27313D",
"8  c #452D1C",
"9  c #432C24",
"0  c #433324",
"q  c #443A2C",
"w  c #4B3C2D",
"e  c #483628",
"r  c #4C3E32",
"t  c #453B36",
"y  c #543C34",
"u  c #53392E",
"i  c #633F30",
"p  c #4A412F",
"a  c #54452E",
"s  c #4C4233",
"d  c #4C433B",
"f  c #4D4838",
"g  c #534334",
"h  c #544B3B",
"j  c #5B4C3C",
"k  c #564738",
"l  c #57503E",
"z  c #644A3A",
"x  c #66533E",
"c  c #292A44",
"v  c #352C44",
"b  c #37364A",
"n  c #393A56",
"m  c #2B3350",
"M  c #383D65",
"N  c #192942",
"B  c #453A47",
"V  c #463C58",
"C  c #442F42",
"Z  c #493F61",
"A  c #394159",
"S  c #3B4366",
"D  c #3E4571",
"F  c #494446",
"G  c #574B45",
"H  c #5B5244",
"J  c #484558",
"K  c #544957",
"L  c #58545A",
"P  c #624E43",
"I  c #665748",
"U  c #795848",
"Y  c #695956",
"T  c #745C56",
"R  c #6E4D46",
"E  c #77665B",
"W  c #6E6250",
"Q  c #474869",
"!  c #554968",
"~  c #575766",
"^  c #484A78",
"/  c #554A77",
"(  c #4B5477",
")  c #565778",
"_  c #4C5268",
"`  c #66596F",
"'  c #59667C",
"]  c #5C6069",
"[  c #786A69",
"{  c #757478",
"}  c #6B6A74",
"|  c #87675B",
" . c #916F5E",
".. c #856B66",
"X. c #8A7469",
"o. c #967668",
"O. c #897975",
"+. c #9A7C73",
"@. c #977366",
"#. c #7F8279",
"$. c #9A8478",
"%. c #978174",
"&. c #A38C7C",
"*. c #A58778",
"=. c #A8917E",
"-. c #B18D7D",
";. c #585787",
":. c #525389",
">. c #645B90",
",. c #5C6487",
"<. c #5B6599",
"1. c #5C718A",
"2. c #676889",
"3. c #677687",
"4. c #797B8B",
"5. c #686A99",
"6. c #687799",
"7. c #78779A",
"8. c #736B97",
"9. c #666BA2",
"0. c #6974A7",
"q. c #777AA8",
"w. c #6C7CB4",
"e. c #6879B6",
"r. c #747BB4",
"t. c #5E73B2",
"y. c #8A7B8D",
"u. c #6D829A",
"i. c #768699",
"p. c #7D838A",
"a. c #7889A7",
"s. c #7A92AA",
"d. c #7984B9",
"f. c #738BAF",
"g. c #7A8AC3",
"h. c #7D91CE",
"j. c #898789",
"k. c #9A8985",
"l. c #888999",
"z. c #979497",
"x. c #A58B85",
"c. c #A59385",
"v. c #AB9384",
"b. c #AB958B",
"n. c #AD9A8D",
"m. c #A7958A",
"M. c #B29B8C",
"N. c #B19888",
"B. c #AD9C93",
"V. c #AC9C9A",
"C. c #A59695",
"Z. c #B39D93",
"A. c #B39B98",
"S. c #AA8E8E",
"D. c #ABA19A",
"F. c #B4A294",
"G. c #B5A49B",
"H. c #BAA59B",
"J. c #B6A99D",
"K. c #BAA99C",
"L. c #B9A295",
"P. c #8786A9",
"I. c #8697AA",
"U. c #9699A8",
"Y. c #8589B8",
"T. c #879AB5",
"R. c #9596B5",
"E. c #918EB8",
"W. c #A69DA8",
"Q. c #8DA5BB",
"!. c #95AABC",
"~. c #96A5B7",
"^. c #9AA7B0",
"/. c #AAA6A6",
"(. c #B3A6A3",
"). c #B5ABA4",
"_. c #BBACA4",
"`. c #B5ACAA",
"'. c #BCADAA",
"]. c #BAA6A3",
"[. c #BBB2A6",
"{. c #BCB3AC",
"}. c #B7B3AC",
"|. c #A7A9B6",
" X c #A9B3BC",
".X c #BDB5B3",
"XX c #BDBAB5",
"oX c #BDBBBB",
"OX c #B7B6B8",
"+X c #B3AEB3",
"@X c #9FA19E",
"#X c #C2B3AB",
"$X c #C2BAB6",
"%X c #C2BDBB",
"&X c #C2B6B3",
"*X c #C1ABA5",
"=X c #C0A298",
"-X c #BDC1BD",
";X c #C3C2BD",
":X c #C8C2BC",
">X c #D1C4BD",
",X c #848CC4",
"<X c #8894C8",
"1X c #8D99C9",
"2X c #98ACC3",
"3X c #9AB4C6",
"4X c #90A8C8",
"5X c #A7B8C7",
"6X c #B8BBC4",
"7X c #A5B4CD",
"8X c #A49DC9",
"9X c #C3BDC6",
"0X c #BAC4C9",
"qX c #B7CAD6",
"wX c #B2C7D4",
"eX c #BFD2E1",
"rX c #C4C4C3",
"tX c #CAC5C2",
"yX c #CBCAC5",
"uX c #CCCBCB",
"iX c #C6C9CB",
"pX c #D3CCCA",
"aX c #D3D3CD",
"sX c #D9D1CE",
"dX c #C9CBD3",
"fX c #CBD4D3",
"gX c #CEDCDB",
"hX c #C9D5D7",
"jX c #D4DBDC",
"kX c #D6D7D7",
"lX c #CECFCE",
"zX c #E5DCD8",
"xX c #D5E2DD",
"cX c #DBE2DD",
"vX c #E5E2DD",
"bX c #CADBE2",
"nX c #D8DCE4",
"mX c #D4CEE8",
"MX c #DBE4E4",
"NX c #DAE6E6",
"BX c #CFE2E0",
"VX c #E3ECEB",
"CX c #E8E8E5",
"ZX c #F2EDEB",
"AX c #F5F2EE",
"SX c #ECF2F5",
"DX c #F4F4F2",
"FX c #FAF5F3",
"GX c #F7FBFA",
"HX c #ECECF2",
/* pixels */
"R.I.^.^.!.^.-Xz.m ~ M M Q Q B t p p w q h p q q < p < 0 < # < q 0 0 # < < < < , , < 6 6 A p.i.i.u.s.f.f.f.s.u.f.a.a.u.3.1.' ' ) ",
"^.~.^.2X3X X0X] n ) Q Q ^ ) B t k q q p j p 0 e s p 0 0 < < # # 0 0 p # < p , , < 6 6 A 7 ] I.s.u.s.f.s.s.s.a.s.s.u.u.6.1.1.' ' ",
" X5X5XwXwX0X0XL ) ,.:.^ ( ~ d f I a g r x q p w k p p p < p < < # 8 p p f H p < < 6 F d 6 6 } I.I.s.s.s.Q.s.i.s.i.i.u.u.1.1.,.' ",
"5X6X5XqXqXqX|.J ,.5.:.^ ^ J d H H j g r p g w w g k p q l < < < w 0 a a f I H 6 h < t G F F 6 A p.!.Q.h.I.s.s.I.s.s.s.u.1.u.1.1.",
"0XqX0XqXqXeX@XJ 3.0.,.;._ B d I P j g g G U P P g a d W G < f f k a j x h W x a s s q H F H d 6 F } !.3X!.Q.I.!.I.I.s.s.u.u.u.3.",
"0X0X5XeXqXhXU.~ 6.0.5.' L H G j P P d j T P Y k.%.+.k.W p h I l l x a j x W W f s x q d G f F d f 6 L z.wX!.I.!.!.Q.Q.Q.s.i.u.3.",
"gXgXiXhXbXNX^._ 6.0.5.) K I G P k P G O.C...O.V.(.)._.Y q I W H l x k a x x W k k x p t h d H f f 6 F A { !.I.!.Q.T.s.s.u.i.u.1.",
"gXgXiXhXgXNX X~ 0.f.a.) L T I P P z I E C./.'.]./.'.m.f G H Y l H l k a x x I x k h 6 < d s F F F F q t , ~ ^.^.!.Q.Q.T.s.s.i.u.",
"gXgXiXfXgXxX-X) f.d.f.~ K Y E P U H k y Y D.&X'.).&X[ < l l a p l f l f j W x j a g t q d t d G t G t 9 , H { 7X7X4X3XQ.f.s.s.i.",
"gXBXhXqXgXgXjX} a.d.T.2.` ] Y Y B G G G P O.V.#X&XD.f p f l f f H l l p p I j p p h p t t t d G t t r 9 < G { p.5X3X4XQ.s.Q.I.s.",
"xXxXBXhXxXxXVXl.2.T.1XY.a.2.} J t t B B K K [ ].>X$.p p l l f a l f l q h h r q l h p < r y y y y e e e y 6 j.} ~.!.!.Q.s.s.s.i.",
"NXxXxXfXcXcXNX0X' E.1X<X,Xr.<Xy.} ` ` O.y.k.y.&.B.I p p p l a a f p p < l h t q H h q # y y y y y y e y P < { } !.5X2XQ.Q.~.Q.U.",
"cXxXBXgXxXxXjXNX4.i.7X<X<Xd.1XP.l.z.W.W.(.'._.F.$.e a 0 a W 0 a p a # 0 j h q r s l 0 e z e u u y y e G t G l. XwXwX5X3X!.!.~.~.",
"xXxXxXqXxXxXhXxXrX) 7X1Xh.g.E.~.|.OX+X+X.X{.#X*XX.# z a a U 8 a a a # 8 a p < r j g e z u e u u y e y y d O./.6X5X7X5X3X!.3X~.~.",
"VXVXVXfXxXNXNXMXVXz.3.7X4X,X5XtX9X%X9X`.).`.[.*XI 0 x x u j 8 u x a 8 w 0 8 w g j a u 9 u u 9 5 y P T X.*.S.k.j.|.5X|.7X!.~.Q.U.",
"xXxXVXxXxXNXNXxXxXNXp.a.7XT.OXyX:X9X%X%X%X{.&XK.W k j x g u e 0 a j w # 8 # 8 w a 8 8 y y 9 9 T O.o.y.S.b.B.C.j.l. X2X2XQ.!.~.Q.",
"NXxXVXxXBXVXxXxXxXfXhX{ i.3X XlXlXrXrXoXOXXX.X.X[ f W h 0 e e e a z k e # # @ # i 8 i | | ..y.S.O.O.S.A.A.V.V.z.y.6X5X5XQ.3X2X!.",
"VXxXxXgXfXxXxXxXgXgX0XBXi.p.OXlXyXlXuX9X}.OXOX.XC.Y F f < # , 9 g 0 # # # # s I ..@.S.v.y.+.-.x.S.A.A.A.W.V.V.S.} |.3X3X4X3X2X!.",
"VXcXVXVXxXVXvXVXNXNXgXBXBX^.{ ;XxXXX:XuX9XoX%XoX9X.Xz.k.C.k.O.Y [ X.O.E [ %.$.F.L.M.=X=X*XN.*.S.A.].'.].`.C.C.x.` U.7X3X3X3X2X2X",
"CXDXZXxXxXSXcXVXVXNXgXhXgXnX}.#./.aXXX}.%X%XoX6XOXOXOXOXOXoX6XXX'.'.[.G.n.m.M.N.n.b.v.S.=X=Xx.x.A._.'.&X`.C.S.y.T j.5X4X4XQ.Q.~.",
"GXGXGXVXxXVXVXVXNXVXjXgXxXgXxX0X#.{ @X/.OXuX9X9X6XoXOX+XW.'.+X(.V.C.C.c.c.D.F.K.N.=.&.=.F.L.=.=.H.'.).{.`.C.C.k.W #.0X3XQ.3X!.!.",
"FXDXDXVXxXxXNXxXMXnXfXfXgXhXqXeXhX Xj.{ 4. XmXmXkXdXdX6X+XW.V.'.'.(.m.$.c.n.J.K.F.&.&.=.=.M.N.=.G._.J.`.}.(.B.x.E [  X3XQ.!.!.!.",
"GXFXGXGXcXSXGXNXNXVXNXjXMXBXbXbXhXwXbXwXI.{ p.l.U.^.|.^.z./.9X9XoX_.D.$.&.m.F.#XJ.&.%.=.N.M.n.&.m.).(.D.).&XK.b...[  X3X!.!.3X-X",
"GXGXGXDXCXSXGXGXVXVXNXjXNXBXbXbXhXwXwX5XwXwX~.I.i.4.3.2.{ +XpXdX%X}.F.v.=.=.M.[.[.c.%.=.=.N.n.&.n.G.J.D.C.C.B.b.o...^.I.i.s.p.u.",
"GXGXGXAXzXSXGXGXSXHXCXBXVXNXBXbXBXeXeXeXwXwXwX3X3XwXwX7X|.6XdXdXiX+XH.o.$.Z.L.[.[.J.v.$.=.n.M.c.m.).].].B.x.k.&.%.r 5 c : : ; : ",
"FXFXDXSXnXVXDXHXVXnXhXdXiX0XwX5XQ.s.Q.s.f.u.1.1.( ( D S 3.dXdXdXrXOXb...=.Z.K.[.[.K.F.m.x.m.Z.n.c.J.G.K.G.b.c.*.| y 5 - 4 4 ; 7 ",
"W.|.U.U.E.y.,Xy.4.y.2.~ ) J A _ m D A m S m N n N N S * ] aXdXdXoX{.k.| N.F.H._.[.[.*XK.F.n.B.n.c.F.H.L.H.M.v.%.E u = - 2 4 ; : ",
"y.P.Y.y.E.q.,Xy.8.P.7.2.3.S D ) S ( D S D S N A m N A : ` uXlXtX.X].%.o.F.H.H.K.*XK.K.K.J.B.n.M.c.F.[.H.A.Z.c.*.| 9 5 - 2 1 1 7 ",
"y.,X<Xy.1XY.y.,X6.q.q.6.q.,.n ( S D _ m n S m n m 7 A 7 L yXlX%X_.M.o.+.F.J._.K.G.H.G.K.J.F.M.L.=.L.#X_.F.H.M.v.| @ - - 2 - c c ",
"y.,X1Xy.8X,XE.,Xy.q.Y.0.0.q.,.( m S _ m S _ m Q A 7 A 4 L yXuX$XK.L.X.+.M.J.*XK.Z.F.K._.J.J.L.M.=.M.[.[.H.L.F.b.R X C - 5 3 - v ",
"g.y.<Xg.,Xy.,X,Xd.q.d.e.f.0.<.0.( S S A S _ A J A 7 A v ~ uXpX%XK.Z.o.*.L._._.F.K.K.K.[.J.J.K.M.=.=.[.[.K.F.A.S.! @ C - 3 c v b ",
",Xr.<X,X,XE.y.,Xq.a.Y.w.e.f.<.0.t.( ( m A ) Q V F 6 F v K uXuXXXH.Z.o.*.*X_.D.G.F.K.J._.[.K.K.K.=.=.{.[.*XH.A.S.T X v 3 3 v v v ",
"<Xd.,Xd.,XY.q.Y.q.q.Y.0.9.e.<.9.t.<.6.D c _ A B K B C 6 K yXuXOXG.Z.o.+.Z.H.B.G.F.G.G.].{.'.*X_.b.$.{..X].].A.A.` X v 3 c v m n ",
"<Xf.g.f.d.Y.9.d.8.5.q.5.<.f.<.t.6.:.0.<.Q ( A n K t B 5 Y pXrXoX].M.+.b.M.M.B.H.G.F.F.).#X.X#X[.Z.k.{.$X&X].S.S.K + c c m m c M ",
"<Xd.<Xd.f.d.9.q.0.5.q.8.9.w.<.t.0.:.5.<.:.) b c J F F 5 y.uXiX}.D.G.G R Z.v.H.H.G.F.F._.&X&X{.{.A.C.{.&X*XA.A.y.C - C c c m c M ",
"<Xd.,Xd.r.d.5.6.5.>.0.5.5.q.<.9.0.:.<.<.:.1.' 5 b 6 t = C.pX;X`.G.C.B = k.v.Z.M.m.F._.*X&X&X{.{._.V.&X&X=XA.A.y.5 3 v v c 3 c c ",
"<Xd.d.,Xq.,X5.5.8.;.q.5.,.0.;.,.6.:.,.<.:.6.,.n K F q d {.pX$X(.F.O.6 % G &.*.*.b._.#X$X{.XXXX{._.'.&X{._.V.S...- 3 c c 3 & & c ",
",Xg.d.<Xr.,X0.5.q.) 2.2.;.2.;.) 6.( ' ) S ( A b J F < T pX%X{.).G.Y > > O I X.$.*X%X$X$X$X.X$X}.).#X.X.X).G.S.Y - c - 3 & c & & ",
"d.q.0.Y.0.r.5.5.8.) 2.) ) 5.( / _ m _ ' ~ 4.y.3.l.l.{ (.>X).).).c.E { ~ G E b.#X$X%XXX%XoX%X$X&X'.'..X{.)._.A.Y % m & c 3 & c & ",
"1Xq.r.r.r.d.0.q.5.) 8.J K 2._ i.^.6XhXnXnXnXCXnXVXkXsXpX}.(.[.m.%.).9X/.OX%X%X%X:X%X9X6X%XXX$X%X.X.X.X{.'.'.*X[ + - - & c & - c ",
"q.Y.Y.w.g.r.r.Y.5.) ~ ~ U.jXNXHXHXNXBXhXjXfXhXdXpXCXAXpX].G.b.x.%.D.+X-X-X;XyXyX;XyX0XXXOX%X%X$X&XoX.X'.#X_.].V.C = 2 - - 3 - 3 ",
"0.d.d.d.g.r.,Xr.8.q.iXHXDXVXMXjXdXdXiXfXfXfXnXkXCXZXFXZX(.k.$.k.D.oX;X-XrXrX;X;XrX-XoXoXXX$X$X$X$X$X.X&X_.].].H.O.+ = = - 2 2 - ",
"d.,Xd.h.r.d.g.5.T.GXGXnXnXnXjXfXfXuXiXhXfXCXCXkXFXDXDXvX.Xz.k._.%XtXiXrXyX-X;XyX-X-XOXOX}.{.XX%X%XXXXX{.#X].J.G.H.k + 5 = - 5 - ",
"e.e.h.g.e.g.r.Y.GXSXmXnXnXNXhXfXdX0X0XjXZXCXaXAXZXDXCX.XC.%.).tXpXuXyXiXiX-XrX;X-X-X-X}.}.}.}.oXoXXX&X.X'._.J.G.H.x.= 2 5 2 2 5 ",
"t.g.h.e.g.g.<.1XGXCXjXnXNXhXqX0X0XiXuXZXGXkXHXSXAXvX_.k.C.V.%XpXsXhXfXiXyXtX;X;X;XrX-XXX}.).}.OXoXXXXX.X'.(._.].].*X` + 5 - - 5 ",
"t.g.e.e.h.t.<.E.GXGXnXkXMXgXiX-X0X-XgXGXaXZXAXAXcX@X%.$X:XpXZXzXkXsXaXyXiXtX;XyXrXrXyX;XXX}.}.XXoXoX$XOX`.`.].].].A.A.t = 5 - - ",
"d.g.e.g.g.e.e.0.R.HXGXcXjXdX0X-X-X0XaXkXCXAXAX>X$.@XvXvXtXZXFXFXzXsXaXaXyXrXyXrX0XrXrX;X-XXX}.XX$X:X;X&X+X].].].].].*X..X 5 - - ",
"g.t.e.g.e.r.Y.q.,.8.kXCXkXkXNXMXxX-XsXZXFXZX{.k.yXFXAX;XCXDXAXAXFXCXsXlXyXyXrXiXyX;XyX-X-X-XXX{.XX;X;X$X.X].=X].].A.=XA.t = v 3 ",
"t.t.g.g.r.r.,X8.8.mXmXZXzXpX9XW.yXCXDXZXzXm.{ j.l.j.{ ;XFXHXFXFXFXFXCXaXlXyXyX;X:X;X;X;XoX$XXX`.}.:X:X;X&X'.'.'.].A.Z.=XX.O = 2 ",
"d.t.g.d.,X,X8.E.mXmXzXmXzXzXsXsXvXFXCX;X%.F 6 ; ; 1 F CXHXDXFXFXFXFXAXCXaXyX>X;X;X;XoXXX$X&X/.V.).$X$X}.'.*X*X*X=XZ.M.L.b.e = 7 ",
"r.,Xh.g.,X,Xr.8Xy.8XmXmXzXzXzXZXZX>Xj.F 7 b b 7 b 3 C.FXZXDXGXDXFXAXAXAXvXaX:X;X-X-XXX{..X).V.C.k._.&X.X&X+X&X].].H.Z.n.L.W = b ",
"r.g.r.e.Y.r.r./ Z C R ..y.(.].W.{ F A 4 7 m c : 1 6 $XAXZXDXDXDXAXAXAXSXCXaX-X;X-X{.}.[.`.V.b.x.$.G.{.XXOX&X&X'.H.H.B.B.Z.O.> c ",
">.8.>.>.>.>.:.:.>.! K ! C V K n c 3 n 1 - c c + X b :XvXZXAXAXDXAXAXCXvXxXpX;X;X{.[.[.J.A.S.x.y.O.G.&X%X%X%X&X'._.G.F.n.N.%.; 4 ",
"/ >./ / :.>.:./ 2.Q V ) ! Z ) ! Z n ! B v C B 5 = L XXpXcXvXCXCXCXvXcXaX:X;X-X[.[.J.J.F.v.v.x...O.].%XrXrX9X9X.X`.G.n.v.-.X.> 4 ",
">.8.>.>.>.9.>.:.2./ Z ) ! Z ! ! V b J C 3 C C = + F >X:X>XaXxXkXkXfXyXyX-X[.-X[.J.F.n.=.+.+.@.U k.&X9XtX6XrX6X&X(.G.M.=.=.E % 7 ",
"/ >.:.:.>.>.:./ ` / Z / / Z ` ` K V K V C v V v = K pXpX:X;X>XlXyXyXrX-X;X-XJ.J.L.N.=.%.+.+.z | A.$XtXyXtXrXoX+X].M.N.*.=.H X > ",
">.9.>.:.:.t.:.:.>.) Q / / ! ! ! B C K V C 5 n - > 6 >XzX:X;XyX>XyXiX;X:X#X[.K.F.-.-.@.-.*.i x *.`.:XrXtXrXoXOX'.V.A.S.*.o., = % ",
"^ :.:.:.^ <.:.^ :.) Q ) ) ! / ` Z Z ! ` V C Z m c 2 K.vXvX:XXX:X:X:X:XXX[.F.F.=.-.-.-.@.i z  .M.#X%X$X$X$X.X`.(.A.b.+.+.P   X X ",
":.:.<.:.:.<.:.^ ;.,.^ :.;.! ` >.! ! / ) Z Z Z n c > O.vXZXvXpX$X;X{.[.D.=.&.*.*.+.@.i 8 i  .@.=X#X'._._.].G.V.V.C.x.+.| O   . . ",
"M D :.^ D ^ D M S _ n M Z V V Z n n V V v v v N ; % < pXZXFXCXsX:X{.J.F.c.=.*.%.@. .8 i  . .*.-.H.H.G.Z.b.B.x.S.S.k.X.#   . . . ",
"- & N & * & & & * & * % % % - & > 1 % $ % * * o * o   c.ZXCXCXvXaX:X{.[.J.F.N.=.*.@.U U | +.*.v.Z.F.Z.v.-.v.-.x.y...@ O X .   X ",
". . .       o . o o o o X = $ = ; 1 ; > ; ; % ; % %   H vXCXvXxXaX:X-X{.[.J.F.=.*. .z U | | +.+.&.x.v.*.+.+.+.@.T @ O X X X X   ",
". .     . . o o . o o o * % $ = - 1 , > ; ; ; ; % ; o ; XXVXcXcXaX:X;X{.}.).F.c.*. .U | |  .+.+.o.*.+.o.@.@.| i O O X X X X O   ",
". .       . . . o . o o * * = & 2 1 > % ; ; ; ; ; ; o   { kXkXaXrX0X-X-X-X).G.M.-.| | @. . .+.+.+.+.o.o. . .i @ O O X X X X O O "
};
