/* XPM */
static char *_3a34ba0af334a0fa1421e1f086fd38bR49nIlWmGq4enfKi[] = {
/* columns rows colors chars-per-pixel */
"64 64 252 2 ",
"   c #251716",
".  c #391A13",
"X  c #291D25",
"o  c #2B2229",
"O  c #332A34",
"+  c #46160E",
"@  c #512C19",
"#  c #4F312F",
"$  c #6A3827",
"%  c #763D27",
"&  c #693C37",
"*  c #5A4335",
"=  c #78432A",
"-  c #694737",
";  c #714C31",
":  c #7A4836",
">  c #7A613A",
",  c #393344",
"<  c #45394B",
"1  c #4F3A4F",
"2  c #6D3C4A",
"3  c #4D4455",
"4  c #554358",
"5  c #684A49",
"6  c #7A5948",
"7  c #6D4E52",
"8  c #765658",
"9  c #776457",
"0  c #5C496B",
"q  c #5A546E",
"w  c #664C65",
"e  c #6F4D6F",
"r  c #695767",
"t  c #785867",
"y  c #665878",
"u  c #746A6D",
"i  c #7C6869",
"p  c #666479",
"a  c #766778",
"s  c #843928",
"d  c #864528",
"f  c #8B462B",
"g  c #8C4A2C",
"h  c #964C2B",
"j  c #8C522B",
"k  c #97542D",
"l  c #834A33",
"z  c #8B4B33",
"x  c #944E32",
"c  c #8C5335",
"v  c #89573A",
"b  c #935333",
"n  c #9A5433",
"m  c #9B5B33",
"M  c #975838",
"N  c #945D3A",
"B  c #A55335",
"V  c #A45D33",
"C  c #A65936",
"Z  c #896137",
"A  c #9B6537",
"S  c #96623C",
"D  c #9A633D",
"F  c #A36435",
"G  c #AB6434",
"H  c #A86739",
"J  c #A56B3B",
"K  c #AC6C3A",
"L  c #B16836",
"P  c #B26D3A",
"I  c #A7763B",
"U  c #AD733C",
"Y  c #B2733D",
"T  c #B6783D",
"R  c #CF4D36",
"E  c #885A45",
"W  c #965C44",
"Q  c #AA5948",
"!  c #896348",
"~  c #996746",
"^  c #9C6B42",
"/  c #9B7345",
"(  c #8F6C57",
")  c #A66847",
"_  c #B66948",
"`  c #A37345",
"'  c #AA7443",
"]  c #A47946",
"[  c #AA7B43",
"{  c #A6754A",
"}  c #A57B4A",
"|  c #AA7C4A",
" . c #B47541",
".. c #B57B43",
"X. c #BA7C43",
"o. c #B17C4C",
"O. c #B87949",
"+. c #AB6C52",
"@. c #A77656",
"#. c #B67856",
"$. c #88586E",
"%. c #965B77",
"&. c #8C6F69",
"*. c #9B7768",
"=. c #896875",
"-. c #99677A",
";. c #897575",
":. c #9B7B75",
">. c #A57967",
",. c #A5697C",
"<. c #AA7778",
"1. c #B47671",
"2. c #DC5C53",
"3. c #C56D4E",
"4. c #C77556",
"5. c #CB7554",
"6. c #CC7856",
"7. c #B6803F",
"8. c #9E8053",
"9. c #A98048",
"0. c #AC824C",
"q. c #B88544",
"w. c #B3834B",
"e. c #BC854A",
"r. c #B68B4D",
"t. c #BC8B4D",
"y. c #BC924E",
"u. c #AC8451",
"i. c #AD8756",
"p. c #B28452",
"a. c #B78857",
"s. c #BC8B52",
"d. c #BD9353",
"f. c #BA9459",
"g. c #9A8478",
"h. c #AB8868",
"j. c #B78867",
"k. c #B99667",
"l. c #A78679",
"z. c #B78776",
"x. c #AA9374",
"c. c #B89779",
"v. c #BDA377",
"b. c #C1854A",
"n. c #C18C4C",
"m. c #C3934E",
"M. c #C8994F",
"N. c #C28E53",
"B. c #C28855",
"V. c #C39353",
"C. c #C49B54",
"Z. c #C99C55",
"A. c #C59759",
"S. c #C49C59",
"D. c #C9A35A",
"F. c #CBA45B",
"G. c #D1AB5D",
"H. c #C19B64",
"J. c #C38973",
"K. c #C7A666",
"L. c #D0AD63",
"P. c #CEB266",
"I. c #D4B469",
"U. c #C5A877",
"Y. c #D5B875",
"T. c #705B85",
"R. c #6C6586",
"E. c #776A8A",
"W. c #7B7589",
"Q. c #786C93",
"!. c #7C7798",
"~. c #7F7EA4",
"^. c #906E85",
"/. c #857887",
"(. c #857C99",
"). c #A77389",
"_. c #AF758C",
"`. c #AA7A96",
"'. c #817DA2",
"]. c #7D8398",
"[. c #8B8488",
"{. c #9C8987",
"}. c #89879A",
"|. c #988B99",
" X c #9A9297",
".X c #A48B86",
"XX c #A5928A",
"oX c #B59989",
"OX c #A78597",
"+X c #B58991",
"@X c #A19393",
"#X c #A2989B",
"$X c #B59B96",
"%X c #BBA588",
"&X c #B6A59A",
"*X c #BEB29A",
"=X c #8B89A7",
"-X c #968CA6",
";X c #8D94AE",
":X c #9696AA",
">X c #9698B5",
",X c #9B9BB5",
"<X c #AA89A5",
"1X c #A39CA3",
"2X c #A595AA",
"3X c #B391AA",
"4X c #A69BB6",
"5X c #9EA0AE",
"6X c #97A4B8",
"7X c #9DA1BC",
"8X c #A6A2A9",
"9X c #B6A9A6",
"0X c #BDB5A8",
"qX c #A3A4BC",
"wX c #AAA7B9",
"eX c #B4A9B8",
"rX c #BAB7B9",
"tX c #C09D8C",
"yX c #C1AB8A",
"uX c #CCB98A",
"iX c #C2B499",
"pX c #C0A6AB",
"aX c #C4B9A7",
"sX c #C1BDB9",
"dX c #D1C396",
"fX c #C9C2B0",
"gX c #9DA7C3",
"hX c #A3A5C2",
"jX c #A5AAC3",
"kX c #AAADC5",
"lX c #A9ADC8",
"zX c #B3ACC3",
"xX c #A9B3C7",
"cX c #ADB2CB",
"vX c #B6B9C8",
"bX c #ABB9D3",
"nX c #B3BAD1",
"mX c #B5B9D1",
"MX c #BEC1CD",
"NX c #AFC2D6",
"BX c #AFC4D9",
"VX c #B7C4D7",
"CX c #B2C5DB",
"ZX c #B5C9DE",
"AX c #B6CDE4",
"SX c #BBCBE6",
"DX c #B8D2EB",
"FX c #B9D5F0",
"GX c #C2C2C7",
"HX c #C1C8D8",
"JX c #C3D0EA",
"KX c #C3D3EB",
/* pixels */
"#X#X#X1X#X1X#X1X1X1X8X8X8X8X8X8X8X:X}.;XxXVXMXMXmXlX;X].zXmXJXHXSXSXJXSXJXSXJXCXgX;X;X6XNXNXNXNXNXNXNXCXCXBXCXZXBXBXZXBXBXBXZXZX",
" X#X#X X#X#X#X1X1X1X1X:X8X:X8X8X:X:XwXrXrX0X9X9XpXzXwXeXvXrXsXMXMXMXHXmXHXHXSXJXKXKXZXgX6X6XxXNXNXVXBXBXBXBXBXBXZXBXBXBXZXZXZXZX",
"#X X@X#X#X#X#X1X1X1X1X1X1X8X:X}.5XeX9X&XoXx.oXoXoX$X&X9X&XiX9X0XpXsXsXGXGXMXmXHXKXHXHXSXAXnX6X6XbXNXVXNXNXBXBXCXBXZXZXZXZXZXZXZX",
"{..X@X X@X#X#X1X1X#X1X#X1X X[.8X9X8X%Xc.x.h.*.>.<.l.z.c.oXtX$X%X$X9X9X0XeXsXsXGXHXGXHXHXVXJXDXbX6XxXNXNXBXBXCXCXZXZXZXBXZXZXZXZX",
"@X{. X@XXX X@X X#X#X#X X[.[.8X9X$Xx.k.j.a.a.@.~ ( #.j.z.j.z.z.c.%X%Xx.*XiXaXsXsXGXMXMXMXHXHXZXJXZXgXbXNXNXBXBXCXZXAXZXZXAXZXDXAX",
"{.@XXX XXX@X@X@X@X#X#X[.[.9X&Xx.k.j.i.@.@.u.#.+.~ #.#.#.@.h.c.H.v.x.( %XyXyXiXsXsXfXsXsXGXGXHXZXJXKXBXgXVXZXZXZXAXHXAXAXAXAXKXKX",
".X{.XXXX{. XXX XXX@X[.[.&X$Xx.h.u.| o.o.o.o.o.o.+.) +.o.a.a.j.j.k.v.k.v.v.U.yXaXiXiXaXaXfXsXMXMXMXSXKXbX6XNXZXZXZXAXAXAXAXAXKXKX",
"{..X{..XXXXXXXXX@X{.g.XXoXk.i.} | ' ' ' { | #.o.#.~ ' #.a.a.f.H.f.k.k.j.k.k.c.J.%X%X%XiXiXsXfXsXMXMXSXKXbX;XNXZXZXZXAXAXAXDXDXFX",
":..X.X.X.XXX.X.Xg.;.oXx.h.@.` [ 0.w.w.0.| ' { @.>.) o.#.p.p.a.a.r.a.p.i.i.f.k.k.c.v.U.yX%X*X*X*XfXMXMXHXFXbX>XCXZXAXAXAXAXDXDXDX",
"g..Xg..X.X.XXX.X;.l.l.>.@.{ | w.r.w.0.w.p.o.} ) ~ ' p.o.O.o...w.r.f.f.D.K.K.K.K.K.v.v.K.v.uXdX*X*X0XsXvXZXKXgX6XZXZXAXAXDXDXDXDX",
"<.{.l.l.l..X.X&.g.h.@./ ] 0.a.f.w.9.0.0.0.w.p.@.W o.o.o.' o.r.s.d.d.d.d.C.S.f.D.I.Y.K.K.K.Y.Y.dXdXfXaX0XGXVXJXgXNXZXAXAXAXDXDXFX",
":.l.l.l.l.+X:.( @.{ / { | f.f.0.| | 0.9.w.0.u.j.@.) ' { o.r.t.r.y.d.d.d.d.C.f.C.D.I.Y.P.k.D.U.dXdXfXfXiX0XsXVXAX6XVXAXAXDXDXFXFX",
":.l.l.l.l.<.( *.) ^ ` | p.a.u.9.| 0.0.w.p.p.i.a.x.( ` o.w.w.w.w.y.y.y.d.C.D.C.C.C.L.I.Y.I.G.K.U.dXuXdXuXiX0XrXZXbX6XAXAXDXFXFXFX",
">.:.<.>.&.( W ~ ~ ) ` | f.a.9.0.0.0.| | ] | ] | h.~ J ' ' ] I [ I T [ w.q.r.m.C.C.P.Y.Y.I.P.F.D.K.Y.Y.Y.U.yX0XrXBX6XBXAXAXDXDXFX",
":.>.l.*.& * ~ ) D ` ' | i.0.] ] ] } ] ] ] / A / ~ N ` w.r.r.y.r.y.r.9.q.r.y.y.y.C.G.Y.Y.I.G.G.D.d.C.L.L.K.U.yX0XvXgX6XAXAXAXDXDX",
">.>.>.*.- : V N F ` { ] ] } } 9.0.9.0.9.[ ] 9.0.` c | r.r.r.a.r.f.D.D.q.q.y.D.S.s.C.G.I.I.G.D.D.F.y.F.K.F.S.U.%X0XNX6XBXAXAXAXAX",
">.>.<.*.l M M W J ` { ` } i.i.9.9.u.9.8.9.9.} 9.@.v ` w.r.s.r.y.y.D.P.F.r.t.A.L.S.d.m.F.G.D.G.Z.D.M.y.D.C.y.f.U.&XrX7XqXAXZXAXAX",
">.>.>.E c M M H D ^ / | i.f.f.i.u.u.9.9./ I | i.h.! ] I 9.y.y.y.y.D.G.I.L.r.r.C.Z.A.V.s.Z.G.Z.Z.D.Z.y.y.F.9.r.K.U.&XwX6XNXVXVXNX",
"*.>.E z M M M ) D ^ } | u.f.k.S.r.u.8.I / u.i.k.g.- } 0.I [ r.y.f.P.P.P.L.D.r.d.A.A.A.B.n.C.D.Z.Z.D.M.y.m.t.r.V.k.oX9X:XwXMXVXMX",
"@.! l z b M M N ^ { } | 0.i.K.u.9.9./ 9.y.r.h.oX;.4 ^ d.F.r.} w.f.F.P.D.F.F.f.t.V.A.A.V.B.e.A.Z.Z.M.M.y.q.m.M.y.H.U.&XqX6XNXvXvX",
"E : l x b c N D / { { } u.u.u.9.u.9.] f.k.f.x.g.y y v r.P.P.f.r.r.y.D.D.D.S.S.d.s.V.N.A.N.B.t.A.M.M.Z.y.q.q.M.m.A.H.%X8X:XNXwXNX",
"l z x v l b M D ` ` } } u.9.8.i.u./ u.k.x.g.;.p !.Q.7 ] f.P.P.D.y.y.d.S.f.A.A.V.t.d.N.N.V.N.B.e.V.M.C.y.q.q.t.M.s.k.v.8X XrXrXrX",
"z W c % l M N ^ / ` / 9.9./ u.u./ / ! i r a !.=X=X'.p Z 9.y.S.K.K.D.d.d.V.A.A.A.t.s.N.N.V.N.N.B.t.V.M.d.q.q.q.M.y.f.k.&X XrXwXrX",
"% z : % c M N ) ^ } } / S / i.i.Z 9 a W.}.=X;X;X;X=X!.8 A w.y.S.F.D.f.d.s.B.s.N.s.a.V.t.B.m.n.N.w.e.M.m.q.y.7.m.n.s.k.%X1XwXwXwX",
"W +.W & b M ~ ` ^ ` ^ ^ S ` 0./ 5 R.(.=X-X;X;X-X;X=X=X(.6 J w.r.f.D.A.f.s.s.s.B.s.w.N.N.e.n.m.N.N.O.m.m.I n.q.q.n.n.H.oX#X8XeXeX",
"+.+.E l v b W D ^ ^ S S Z / u.9.9 ].}.:X;X:X>X>X>X>X>X-X!.t / [ 9.r.f.V.s.#.#.s.B.s.t.A.n.t.N.n.V.p.w.m.I n.t.T n.V.k.c.@X#X8X9X",
"+.+.% l c N D ^ ^ S ^ v = S u.f.( /.-X,X,X>X,X,X,X,X>X,X;X(.i ! ; > r.N.e.B.w.w.s.t.q.N.N.e.t.m.V.A.p.t.I n.m.T q.t.V.c.@X#X9X8X",
"+.Q % l c N D D Z D ^ l 5 6 / a.i.i |.5X,X,X7X6X7X,X7X7X7X,X:XW.# O Z | p.J.B.p.O.a...N.V.t.e.n.N.A.k.t.I q.m.7.T b.s.j.XX@X#X&X",
") Q = : c W S S N ^ / ; w w v ] f.8.u :X6X6XqX7XhX4XqXqXjXkX7X,X].r 7 5 ! o.5.s.o.w.o.B.n.V.n.q.V.A.k.j.I t.M.7.T e.e.h.XXXX$X$X",
") W = l c N M S S / ! 5 E.E.r v 8.f.8.g.,XqX7XqXhXhXqXjXjXkXjXjX7X}./.a r 5 ^ O.e.....e.V.V.n.q.n.Z.j.h.J t.M.7.U e...a.XX.X$X$X",
"Q Q = : c N N N S ` ! a =X:X=Xa > ~ 9.8.;.5X6X7XqXhXhXjXjXkXkXxXxXqX:X(.;.r w ! O.o.{ q.V.m.n.q.n.M.a.x.A T q.7.U T Y j..XoX$X+X",
"_ ) % : c v ~ D ^ ^ 5 W.:X>X,X,X}.u 9 S S i  XqXgXhXqXjXjXkXkXkXcXkX7X=X=X/.u r E o.K q.C.m.V.q.n.C.9.x.Z J q.I J T I #..X+XoXoX",
"Q ) % : v N ^ S D / 4 q p ]. X5X5X,X;X[.;.9 8 (.qXjXqXjXhXhXhXlXcXcXqX6X;X].u r 7 9 J q.C.m.C.q.m.M.| x.v Z A / ! ( g.g.i x.+XoX",
"Q 6 & = v N D S ^ E 0 y p q 3 q W.;X6X6X7X>X:X-X,XwXqXqX7XhXhXgX5X}.].p r p R.W.W.7 Z q.C.m.m.q.M.D.I z.9 [.5X,X|.|.=.&.g.c.J.z.",
"_ W 5 ; c S D A / ; , 4 0 y y q 3 , 3 q }.:X4XhXqX4XqXqX>X=XT.3 , O 3 p Q.].!.R.r r * Z t.m.m.q.S.D.' x.[.bX>X-X-X/.W a..Xz.oXz.",
"_ _ : - N D D S / ; o o o O 3 q p q , X O q (.4X,X4X2X,XE., X o < q q Q.R.p q 3 O O @ ; C.D.m.T t.q.) x.a ~.=X-X=.E ' j.l.z.J.z.",
"_ _ +.= v A ^ S { 6 <   . @ O o o < 3 , , X 0 '.4X:X<X-X2 < 1 0 , O 1 < o       X   @ A F.I.m...q.Y 0.x.a ;X;X;.A m Y j..X1.j.z.",
"3.3.3.l : S S S { / 3 , o > Z @ +   O o < 1 1 '.<X<X<X).$.e 1 X     + + X 7 6 ;.9 O 5 [ G.I.e.Y T U f.oX].:Xi v I A Y j.oX1.J.J.",
"3.3.4.z ; S S S / u.7 < O > v.@.Q E :.4 O 2 e ^.`.`.`.^.$.e #   # - & s s Q 2.B X , 6 3.G.M.I T U 7.f.%Xi 6 d A J A U a.$X1.J.4.",
"4.3.5.v $ ~ A S D u.( 4 3 O 9 *.B R 2.Q # 2 e ^.`._.).%.%.e 1 & x.%XQ R 2.2.R # < 3 j m.F.q.I U J q.K.XX- j j A J A K s.$X.XJ.j.",
"5.3.3.z $ v ` S S ` 9.6 w q 4 1 1 2 7 $.7 e $.%.`.`._.%.%.%.2 $.9 9 ; $ s 2 2 w y 5 K V.y.I I F T y.v.g.9 Z j F K J G a.$X.XJ.j.",
"5.4.5.z $ & { ` S S / / 6 t =.=.=.$.=.=.%.%.%.%._.3X_.).%.%.%.,.:.-.$.t $.$.^.-.8 v X.e.[ J k J t.f.%Xu ;.Z m F K P H O.J..Xz.J.",
"5.5.3.z % $ ~ | ^ N S ` / ! ( 6 8 <.).-.,.%.%.%.`.`._._._.).%.,.,._.<._._.,.).%.: K ..) A d F 3.e.f.oX> k A F I J U L L j.$X<.J.",
"5.5._ l = $ : { ' ^ v v ~ D E 6 =.).).<.).).)._.`.`.`.`._._._.,.1.1._.1.1.1._.E ~ J S z = V T b.O.c.*.Z J J J F J L L H #.%X).>.",
"5.3.) l l : % v ] ` ~ : - 5 7 =.OXOXOXOX`.OX`.`.`.3X`.`.`.`.+X_._._._._.+X+X( W M c 5 % G 5.B...o.x.v A U G J A J L L ) ) z.&X( ",
"5.3.Q z c c = $ v ` ) S 5 t ^.<XOX2XOX<X<X<XOX<X3X`.3X`.3X<X3X3X+X`.3X+X_.).5 : 5 7 8 ^ b.n...+.z.6 j U U G F m K K G _ Q +.tX@X",
"5.3.M g b N l $ $ v ^ ) ) E ;.2X1XwX4X4X2X4X2X2X`.4X<X3X3X3X3X3X3X3X3X3X3X`.=.^.E.t ~ e.e.P J @.> = F ..U G V A F P C K ~ W z.pX",
"3.3.b c m S k = % $ : W ) W E &.|.wXwXwX4X4X-X-X4X4X4X4XzXzXzXzXzXeX9XzXpXzXeX-X$.E X...G D ~ E = h K Y L V V H k Y C H D Q >.+X",
"3._ g n M M m v d = $ $ : N W E E i a }.4XqXE.}.4XqXzXlXcXcXcXzXzXzXzXzXzXcX2X=.! { U F S v d % d V Y Y G V G L = L F m _ O.@.<.",
"3.m x n m n D N g f z % $ # 1 7 7 r a :XjXqXp p =X=X>XjXcXcXcXcXcXvXmXvXwX|.( N C W v : = = = d f G T F V V G P c j = % C _ _ 1.",
"_ h g n m n F v c g f f s & w E.=XgXlXcXkXkX:XR.!.(.=XlXcXmXmXbXmXmXnXxXW.8 E 8 8 8 $ $ = = d d h Y T F V G G T ^ & . @ n C _ #.",
"C f d n n n F d c c f z f % $ y :XjXkXlXcXkXqX>X;X>XjXcXcXcXmXmXmXmXnXVXwX:X=X(.(.r @ % d j k d F T F F G G G L ' v . @ C z Q +.",
"z s h h h B V $ b b g b b g % & W.gXkXlXcXcXcXlXkXjXlXcXmXmXmXcXnXbXmXcXkX7X>X'.W.4 $ % j m k d K U G G L G G L P ~ E = C B d W ",
"z d h h h B b % n b g M m b g = 5 |.jXxXcXcXlXhXhXhXhXhXhXhX>X>XhXlXlXgXgX>X=XQ.0 1 % s A J m F T L Y L P L G P Y ) ) Q x B x % ",
"z h B h h n d = n j g m A m k f % 5 :XcXcXcXcX,X>X'.(.|.}.:X>XgXgXhXgX7X>X=XQ.0 0 & d j J Z m J U P P L P L L L T T ~ #.Q s B n ",
"f h h h B h c l n g g m F F V n g $ 8 2XcXcXcXcX4X-X2X2X4XhXhXhXhXgXgX>X=XR.0 0 w v j m A @ k P U Y K Y Y Y G L P T #.@.4.W s B ",
"f f f h x s ) = k g h V G G J A m s = 6 ,XnXnXnXlX>X-X4XlXgXgXgXgXgX>X].R.0 0 T.8 D k F A = A Y  .Y U Y P Y F V L T  .>.#.4.~ z ",
"_ b s s d _ Q s g g j m K K J G F g h h 5 |.cXnXlXlXlXlXbXbXgXgX7X>X~.T.0 T.T.T.! K m J U U P T Y K  .Y Y Y m V L L P j.1.4.#.+.",
"5.5._ B ) 5.M f g g $ = J T U H H h m G k - ;.kXmXlXbXbXbXlXgXgX;XQ.y 0 T.T.Q.e ` J A U U Y T T K Y Y Y T Y m k G L L #.<.1.4.#.",
"6.5.6.6.6.5.n f d d % d G ....L H m G P Y h $ u 7XcXlXgXgX7X;XQ.T.0 T.T.T.(.T.W ..F H K U X.T U P T P X.X.H m n B G L _ l.>.#.#.",
"6.6.6.6.6.5.z f d d d V C P X.P H V K ..T k h s 7 ~.>X>X].~.R.T.y T.Q.Q.(.(.$.Y q.J J ..q.X.Y Y  .P Y e.X.k k b n C L _ <.( j.#.",
"5.6.6.6.6.6.f h d d d V V L X.T G V _ r.q.V V V $ 4 y q q T.T.T.Q.Q.!.!.'.t J b.T A Y n.e.U Y  . .K X.b.F d A g n C L L 1.*.1.4.",
"6.6.6.6.6.6.b d s d d h L C P Y H V P t.n.G G ' l w T.T.R.Q.Q.'.~.~.~.~.W.E e.N.J A e.n.T P T X.G Y b.Y g j n f B C K Q <.*.J.#.",
"6.6.6.6.6.6.M f d % s f L L V P L G  .n.t.G L ..m w Q.Q.~.'.'.'.;X'.=X(.t U V.t.m  .b.X.K T e.Y G X.Y g g b b z M Q K ) <.@.J.6."
};
