/* XPM */
static char *bcd64adf77b745a18e7df1c0bac6719df1FfkZ6ouaSqlokw[] = {
/* columns rows colors chars-per-pixel */
"64 64 254 2 ",
"   c #0033B6",
".  c #0034B6",
"X  c #0034B7",
"o  c #0035B7",
"O  c #0036B7",
"+  c #0037B7",
"@  c #0037B8",
"#  c #0038B8",
"$  c #0138B8",
"%  c #0338B8",
"&  c #0539B8",
"*  c #0439B9",
"=  c #0639B9",
"-  c #053AB9",
";  c #053BB9",
":  c #063AB9",
">  c #073BB9",
",  c #083BB9",
"<  c #093CB9",
"1  c #093DB9",
"2  c #083CBA",
"3  c #093CBA",
"4  c #083DBA",
"5  c #0B3DBA",
"6  c #0A3EBA",
"7  c #0C3EBA",
"8  c #0C3FBA",
"9  c #0C3FBB",
"0  c #0D3FBB",
"q  c #0D40BB",
"w  c #0E40BB",
"e  c #0F40BB",
"r  c #0F41BB",
"t  c #0F42BC",
"y  c #1143BC",
"u  c #1243BC",
"i  c #1244BC",
"p  c #1344BC",
"a  c #1445BC",
"s  c #1444BD",
"d  c #1646BD",
"f  c #1746BD",
"g  c #1647BD",
"h  c #1747BD",
"j  c #1746BE",
"k  c #1747BE",
"l  c #1847BE",
"z  c #1848BE",
"x  c #1949BE",
"c  c #1A49BF",
"v  c #1B4ABE",
"b  c #1A4ABF",
"n  c #1B4BBF",
"m  c #1C4ABF",
"M  c #1C4BBF",
"N  c #1D4DBF",
"B  c #1E4CBF",
"V  c #1E4DBF",
"C  c #1F4DC0",
"Z  c #1F4EC0",
"A  c #204DC0",
"S  c #204EC0",
"D  c #214EC0",
"F  c #224FC0",
"G  c #2550C1",
"H  c #2551C1",
"J  c #2754C2",
"K  c #2852C2",
"L  c #2854C2",
"P  c #2954C2",
"I  c #2855C2",
"U  c #2A55C3",
"Y  c #2A56C3",
"T  c #2B57C3",
"R  c #2D55C3",
"E  c #2E56C3",
"W  c #2E56C4",
"Q  c #2E57C4",
"!  c #2F57C4",
"~  c #2D58C4",
"^  c #3057C4",
"/  c #3058C4",
"(  c #3059C4",
")  c #3159C5",
"_  c #325CC5",
"`  c #335CC5",
"'  c #345DC5",
"]  c #345EC6",
"[  c #355FC6",
"{  c #375FC6",
"}  c #3760C6",
"|  c #3860C6",
" . c #3860C7",
".. c #3961C7",
"X. c #3962C7",
"o. c #3B62C7",
"O. c #3A63C7",
"+. c #3C64C7",
"@. c #3D63C8",
"#. c #3C65C8",
"$. c #3D65C8",
"%. c #3E65C8",
"&. c #3E66C8",
"*. c #3F67C8",
"=. c #3F67C9",
"-. c #4065C8",
";. c #4166C8",
":. c #4167C9",
">. c #4267C9",
",. c #4367C9",
"<. c #4068C9",
"1. c #4368C9",
"2. c #4469C9",
"3. c #4569C9",
"4. c #456ACA",
"5. c #476BCA",
"6. c #4D6FCB",
"7. c #4E6FCD",
"8. c #4E70CB",
"9. c #4D70CC",
"0. c #4F71CC",
"q. c #5173CD",
"w. c #5273CD",
"e. c #5374CC",
"r. c #5275CE",
"t. c #5474CE",
"y. c #5475CE",
"u. c #5576CE",
"i. c #5676CE",
"p. c #5777CF",
"a. c #5A77CF",
"s. c #5878CF",
"d. c #5D7DD1",
"f. c #5E7DD1",
"g. c #5F7DD1",
"h. c #5F7ED1",
"j. c #617FD2",
"k. c #6280D2",
"l. c #6381D2",
"z. c #6583D3",
"x. c #6986D4",
"c. c #6B88D4",
"v. c #6C88D5",
"b. c #6D8AD5",
"n. c #6F8AD5",
"m. c #708BD6",
"M. c #718DD7",
"N. c #798ED8",
"B. c #7791D8",
"V. c #7792D8",
"C. c #7A94D9",
"Z. c #7C94D9",
"A. c #7C96D9",
"S. c #7D96DA",
"D. c #7E96DA",
"F. c #8198DA",
"G. c #8199DA",
"H. c #859BDB",
"J. c #859CDC",
"K. c #879DDC",
"L. c #899FDD",
"P. c #8BA0DD",
"I. c #8CA3DE",
"U. c #91A6DF",
"Y. c #93A7E0",
"T. c #98ABE1",
"R. c #9AADE2",
"E. c #9CAEE2",
"W. c #A3B4E4",
"Q. c #A4B5E5",
"!. c #A7B8E6",
"~. c #A8B8E6",
"^. c #A9B8E6",
"/. c #A9B9E6",
"(. c #AAB8E6",
"). c #ACBCE7",
"_. c #AEBDE7",
"`. c #B3C1E8",
"'. c #B2C0E9",
"]. c #B4C1E9",
"[. c #B6C3E9",
"{. c #B6C4EA",
"}. c #B8C5EA",
"|. c #B9C6EA",
" X c #B9C6EB",
".X c #BAC6EA",
"XX c #BAC7EA",
"oX c #BBC7EB",
"OX c #C0CBED",
"+X c #C3CEED",
"@X c #C4CEED",
"#X c #C5CFED",
"$X c #C4CEEE",
"%X c #C9D2EF",
"&X c #CCD5F0",
"*X c #CDD6F0",
"=X c #CED6F0",
"-X c #CFD7F1",
";X c #D0D8F1",
":X c #D1D8F1",
">X c #D1D9F1",
",X c #D4DBF2",
"<X c #D5DCF2",
"1X c #D5DCF3",
"2X c #D6DDF3",
"3X c #D8DEF3",
"4X c #D8DFF3",
"5X c #DAE0F4",
"6X c #DBE1F4",
"7X c #DCE2F5",
"8X c #DDE3F5",
"9X c #DEE4F5",
"0X c #E1E6F6",
"qX c #E2E7F6",
"wX c #E4E9F7",
"eX c #E5E9F7",
"rX c #E6E9F7",
"tX c #E6EAF7",
"yX c #E6EBF8",
"uX c #E7EBF8",
"iX c #E8ECF8",
"pX c #E9ECF8",
"aX c #EAEEF9",
"sX c #EBEEF9",
"dX c #ECEFF9",
"fX c #EDEFF9",
"gX c #ECF0FA",
"hX c #EEF0FA",
"jX c #EEF1FA",
"kX c #EFF1FA",
"lX c #F0F2FA",
"zX c #F2F4FB",
"xX c #F3F5FB",
"cX c #F3F6FC",
"vX c #F4F6FC",
"bX c #F5F6FC",
"nX c #F5F7FC",
"mX c #F6F7FC",
"MX c #F6F8FC",
"NX c #F7F8FC",
"BX c #F7F8FD",
"VX c #F8F9FD",
"CX c #F8FAFD",
"ZX c #F9FAFD",
"AX c #FAFAFD",
"SX c #FAFBFD",
"DX c #FAFBFE",
"FX c #FBFCFE",
"GX c #FCFCFE",
"HX c #FCFDFE",
"JX c #FDFDFE",
"KX c #FDFEFE",
"LX c #FEFEFF",
"PX c white",
/* pixels */
"PXPXPXPXPXPXPXPXPXPXPXPXPXPXPXPXPXPXPXPXPXPXPXPXPXPXPXPXPXPXPXPXPXPXPXPXPXPXPXPXPXPXPXPXPXPXPXPXPXPXPXPXPXPXPXPXPXPXPXPXPXPXPXPX",
"PXPXPXPX6X#X+X+X+X+X+X+X+X+X+X+X+X+X+X+X+X+X+X+X+X+X+X+X+X+X+X+X+X+X+X+X+X+X+X+X+X+X+X+X+X+X+X+X+X+X+X+X+X+X+X+X+X+X$X:XmXPXPXPX",
"PXPXaXM.M q q q q q q q q q q q q q q q q q q q q q q q q q q q q q q q q q q q q q q q q q q q q q q q q q q q q q q j d.6XPXPX",
"PXPXA.o o @ @ @ @ @ @ @ @ @ @ @ @ @ @ @ @ @ @ @ @ @ @ @ @ @ @ @ @ @ @ @ @ @ @ @ @ @ @ @ @ @ @ @ @ @ @ @ @ @ @ @ @ @ @ @   e.mXPX",
"PXuXJ @ @ @ # # # # # # # # # # # # # # # # # # # # # # # # # # # # # # # # # # # # # # # # # # # # # # # # # # # # # # @ u -XPX",
"PX8XC @ @ @ # # # # # # # # # # # # # # # # # # # # # # # # # # # # # # # # # # # # # # # # # # # # # # # # # # # # # # @ ,  XPX",
"PX6XC @ @ # # # # # # # # # # # # # # # # # # # # # # # # # # # # # # # # # # # # # # # # # # # # # # # # # # # # # # # + <  XPX",
"PX8Xz @ # # # # # # # # # # # # # # # # # # # # # # # # # # # # # # # # # # # # # # # # # # # # # # # # # # # # # # # + + <  XPX",
"PX6Xb @ # # # # # # # # # # # # # # # # # # # # # # # # # # # # # # # # # # # # # # # # # # # # # # # # # # # # # # # # # 6  XPX",
"PX8Xb @ # # # # # # # # # # # # # # # # # # # # # # # # # # # # # # # # # # # # # # # # # # # # # # # # # # # # # # # # # 6  XPX",
"PX8Xb @ # # # # # # # # # # # # # # # # # # # # # # # # # # # # # # # # # # # # # # # # # # # # # # # # # # # # # # # # + <  XPX",
"PX6Xb @ # # # # # # # # # # # # # # # # # # # # # # # # # # # # # # # # # # # # # # # # # # # # # # # # # # # # # # # # + < .XPX",
"PX6XC @ # # # # # # # # # # # # # # # # # # # # # # # # # # # # # # # # # # # # # # # # # # # # # # # # + # # # + + + + + < XXPX",
"PX8Xj   o o o o o o o o o o o o o o o o o o o o o o o o o o o o o o o o o o o o o o o o o o o o o o o o o o o o o o o o o ;  XPX",
"PXuXf.6.8.8.8.8.8.8.8.8.8.8.8.8.8.8.8.8.8.8.8.8.8.8.8.8.8.8.8.6.8.8.8.8.8.8.8.8.8.8.8.8.8.8.8.8.8.8.8.8.8.8.8.8.8.8.8.8.8.e.%XPX",
"PXPXAXAXAXAXAXAXAXAXAXAXAXAXAXAXAXAXAXAXAXAXAXAXAXAXAXAXAXAXAXAXAXAXAXAXAXAXAXAXAXAXAXAXAXAXAXAXAXAXAXFXAXAXAXAXAXFXAXAXAXAXPXPX",
"PXPXPXPXPXPXPXPXPXPXPXPXPXPXPXPXPXPXPXPXPXPXPXPXPXPXPXPXPXPXPXPXPXPXPXPXPXPXPXPXPXPXPXPXPXPXPXPXPXPXPXPXPXPXPXPXPXPXPXPXPXPXPXPX",
"PXPXPXPXPXPXPXPXPXPXPXPXPXPXPXPXPXPXPXPXPXPXPXPXPXPXPXPXPXPXPXPXPXPXPXPXPXPXPXPXPXPXPXPXPXPXPXPXPXPXPXPXPXPXPXPXPXPXPXPXPXPXPXPX",
"PXPXPXPXPXPXPXPXPXPXPXPXPXPXPXPXPXPXPXPXPXPXPXPXPXPXPXPXPXPXPXPXPXPXPXPXPXPXPXPXPXPXPXPXPXPXPXPXPXPXPXPXPXPXPXPXPXPXPXPXPXPXPXPX",
"PXPXPXPXPXPXPXPXPXPXPXPXPXPXPXPXPXPXPXPXPXPXPXPXPXPXPXPXPXPXPXPXPXPXPXPXPXPXPXPXPXPXPXPXPXPXPXPXPXPXPXPXPXPXPXPXPXPXPXPXPXPXPXPX",
"PXPXPXPXPXPXPXPXPXPXPXPXPXPXPXPXPXPXPXPXPXPXPXPXPXPXPXPXPXPXPX9X&XPXPXPXPXPXPXPXPXPXPXPXPXPXPXPXPXPXPXPXPXPXPXPXPXPXPXPXPXPXPXPX",
"PXPXPXPXPXPXPXPXPXPXPXPXPXPXPXPXPXPXPXPXPXPXPXPXPXPXPXPXPXPXPXn.:.kXPXPXPXPXPXPXPXPXPXPXPXPXPXPXPXPXPXPXPXPXPXPXPXPXPXPXPXPXPXPX",
"PXPXPXPXPXPXPXPXPXPXPXPXPXPXPXPXPXPXPXPXPXPXPXPXPXPXPXPXPXPX$Xp @ T.PXPXPXPXPXPXPXPXPXPXPXPXPXPXPXPXPXPXPXPXPXPXPXPXPXPXPXPXPXPX",
"PXPXPXPXPXPXPXPXPXPXPXPXPXPXPXPXPXPXPXPXPXPXPXPXPXPXPXPXPXvXw.u B U 9XPXPXPXPXPXPXPXPXPXPXPXPXPXPXPXPXPXPXPXPXPXPXPXPXPXPXPXPXPX",
"PXPXPXPXPXPXPXPXPXPXPXPXPXPXPXPXPXPXPXPXPXPXPXPXPXPXPXPXPX!., A.!.6 V.PXPXPXPXPXPXPXPXPXPXPXPXPXPXPXPXPXPXPXPXPXPXPXPXPXPXPXPXPX",
"PXPXPXPXPXPXPXPXPXPXPXPXPXPXPXPXPXPXPXPXPXPXkXfXkXfXkXkX6X' F -XrX4.j OXkXfXfXfXkXaXAXPXPXPXPXPXPXPXPXPXPXPXPXPXPXPXPXPXPXPXPXPX",
"PXPXPXPXPXPXPXPXPXPXPXPXPXPXPXPXPXPXPXPXPXAXN.! ) ! R ^ K @ q R R j o B ^ R R ! ! a.aXPXPXPXPXPXPXPXPXPXPXPXPXPXPXPXPXPXPXPXPXPX",
"PXPXPXPXPXPXPXPXPXPXPXPXPXPXPXPXPXPXPXPXPXPX X0 6 9.u.| o U u.u.u.a.| o U u.u.b o Y.PXPXPXPXPXPXPXPXPXPXPXPXPXPXPXPXPXPXPXPXPXPX",
"PXPXPXPXPXPXPXPXPXPXPXPXPXPXPXPXPXPXPXPXPXPXFXx.0 `.AXz.q {.PXAXAXPX1XJ | fX<XA :.kXPXPXPXPXPXPXPXPXPXPXPXPXPXPXPXPXPXPXPXPXPXPX",
"PXPXPXPXPXPXPXPXPXPXPXPXPXPXPXPXPXPXPXPXPXPXPX1XC 4.(.q z.AXPXPXPXPXPXU.: I.n.6 `.PXPXPXPXPXPXPXPXPXPXPXPXPXPXPXPXPXPXPXPXPXPXPX",
"PXPXPXPXPXPXPXPXPXPXPXPXPXPXPXPXPXPXPXPXPXPXPXPXL., j B :XPXPXPXPXPXPXfX+.q 6 f.AXPXPXPXPXPXPXPXPXPXPXPXPXPXPXPXPXPXPXPXPXPXPXPX",
"PXPXPXPXPXPXPXPXPXPXPXPXPXPXPXPXPXPXPXPXPXPXPXPXpX'   G.PXPXPXPXPXPXPXPX_.; z %XPXPXPXPXPXPXPXPXPXPXPXPXPXPXPXPXPXPXPXPXPXPXPXPX",
"PXPXPXPXPXPXPXPXPXPXPXPXPXPXPXPXPXPXPXPXPXPXPXPX0X!   B.PXPXPXPXPXPXPXPXW.# j +XPXPXPXPXPXPXPXPXPXPXPXPXPXPXPXPXPXPXPXPXPXPXPXPX",
"PXPXPXPXPXPXPXPXPXPXPXPXPXPXPXPXPXPXPXPXPXPXPXPXA.6 C l #XPXPXPXPXPXPXrX_ b q e.vXPXPXPXPXPXPXPXPXPXPXPXPXPXPXPXPXPXPXPXPXPXPXPX",
"PXPXPXPXPXPXPXPXPXPXPXPXPXPXPXPXPXPXPXPXPXPXPX-Xz w. Xp d.vXPXPXPXPXPXH.: R.C., (.PXPXPXPXPXPXPXPXPXPXPXPXPXPXPXPXPXPXPXPXPXPXPX",
"PXPXPXPXPXPXPXPXPXPXPXPXPXPXPXPXPXPXPXPXPXPXNXf.0 {.vXx.6 (.NXxXmXmX%XM :.pX<XJ ' aXPXPXPXPXPXPXPXPXPXPXPXPXPXPXPXPXPXPXPXPXPXPX",
"PXPXPXPXPXPXPXPXPXPXPXPXPXPXPXPXPXPXPXPXPXPX_.: ; }  .J o M *.| O.*.U o B +.@.a o J.PXPXPXPXPXPXPXPXPXPXPXPXPXPXPXPXPXPXPXPXPXPX",
"PXPXPXPXPXPXPXPXPXPXPXPXPXPXPXPXPXPXPXPXPXNXG.4.5.4.4.4.| # u :.<.B o U 4.:.+.<.=.k.aXPXPXPXPXPXPXPXPXPXPXPXPXPXPXPXPXPXPXPXPXPX",
"PXPXPXPXPXPXPXPXPXPXPXPXPXPXPXPXPXPXPXPXPXPXNXNXNXNXNXAXrX*.B :XkX:.M -XAXvXNXvXxXvXPXPXPXPXPXPXPXPXPXPXPXPXPXPXPXPXPXPXPXPXPXPX",
"PXPXPXPXPXPXPXPXPXPXPXPXPXPXPXPXPXPXPXPXPXPXPXPXPXPXPXPXPX_.6 m.R.: J.PXPXPXPXPXPXPXPXPXPXPXPXPXPXPXPXPXPXPXPXPXPXPXPXPXPXPXPXPX",
"PXPXPXPXPXPXPXPXPXPXPXPXPXPXPXPXPXPXPXPXPXPXPXPXPXPXPXPXPXAXj.q j ' rXPXPXPXPXPXPXPXPXPXPXPXPXPXPXPXPXPXPXPXPXPXPXPXPXPXPXPXPXPX",
"PXPXPXPXPXPXPXPXPXPXPXPXPXPXPXPXPXPXPXPXPXPXPXPXPXPXPXPXPXPX%Xb + Q.PXPXPXPXPXPXPXPXPXPXPXPXPXPXPXPXPXPXPXPXPXPXPXPXPXPXPXPXPXPX",
"PXPXPXPXPXPXPXPXPXPXPXPXPXPXPXPXPXPXPXPXPXPXPXPXPXPXPXPXPXPXPXC.8.xXPXPXPXPXPXPXPXPXPXPXPXPXPXPXPXPXPXPXPXPXPXPXPXPXPXPXPXPXPXPX",
"PXPXPXPXPXPXPXPXPXPXPXPXPXPXPXPXPXPXPXPXPXPXPXPXPXPXPXPXPXPXPXrX4XPXPXPXPXPXPXPXPXPXPXPXPXPXPXPXPXPXPXPXPXPXPXPXPXPXPXPXPXPXPXPX",
"PXPXPXPXPXPXPXPXPXPXPXPXPXPXPXPXPXPXPXPXPXPXPXPXPXPXPXPXPXPXPXPXPXPXPXPXPXPXPXPXPXPXPXPXPXPXPXPXPXPXPXPXPXPXPXPXPXPXPXPXPXPXPXPX",
"PXPXPXPXPXPXPXPXPXPXPXPXPXPXPXPXPXPXPXPXPXPXPXPXPXPXPXPXPXPXPXPXPXPXPXPXPXPXPXPXPXPXPXPXPXPXPXPXPXPXPXPXPXPXPXPXPXPXPXPXPXPXPXPX",
"PXPXPXPXPXPXPXPXPXPXPXPXPXPXPXPXPXPXPXPXPXPXPXPXPXPXPXPXPXPXPXPXPXPXPXPXPXPXPXPXPXPXPXPXPXPXPXPXPXPXPXPXPXPXPXPXPXPXPXPXPXPXPXPX",
"PXPXPXPXPXPXPXPXPXPXPXPXPXPXPXPXPXPXPXPXPXPXPXPXPXPXPXPXPXPXPXPXPXPXPXPXPXPXPXPXPXPXPXPXPXPXPXPXPXPXPXPXPXPXPXPXPXPXPXPXPXPXPXPX",
"PXPXxXzXxXxXxXxXxXzXvXxXzXxXxXzXvXxXxXxXxXzXvXxXzXxXxXzXvXxXzXvXxXxXxXxXxXxXxXxXxXxXxXxXxXxXxXxXxXxXxXzXvXxXzXxXxXzXvXxXzXzXGXPX",
"PXwX9.'  .|  . . . . .| |  . . .| | |  . . . .| |  . . . .| |  . . . .|  . . .|  . . .|  . .| | | |  . . .| |  . . . .| | :.%XPX",
"PX8Xj @ o o o @ @ o o o o o @ o o o o o @ o o o o o @ o o o o o @ o o o @ o o o @ o o o @ o o o o o @ o o o o o @ o o o   ;  XPX",
"PX8Xb @ # @ @ # @ # # # # # # @ # # # # @ # # # # # # @ # # # # @ @ # # @ @ # # @ @ # # # @ # # # # # @ # # # # @ # # # o 6  XPX",
"PX6Xj @ @ # # # # # # # # # # # # # # # # # # # # # # # # # # # # # # # # # # # # # # # # # # # # # # # # # # # # # # # # 6  XPX",
"PX8XC @ # # # # # # # # # # # # # # # # # # # # # # # # # # # # # # # # # # # # # # # # # # # # # # # # # # # # # # # # # 6  XPX",
"PX8XC @ # # # # # # # # # # # # # # # # # # # # # # # # # # # # # # # # # # # # # # # # # # # # # # # # # # # # # # # # + < .XPX",
"PX6Xj @ # # # # # # # # # # # # # # # # # # # # # # # # # # # # # # # # # # # # # # # # # # # # # # # # # # # # # # + + + < .XPX",
"PX6Xb # # # # # # # # # # # # # # # # # # # # # # # # # # # # # # # # # # # # # # # # # # # # # # # # # # # # # # # # # # 1  XPX",
"PX8Xb # # # # # # # # # # # # # # # # # # # # # # # # # # # # # # # # # # # # # # # # # # # # # # # # # # # # # # # # # # q  XPX",
"PX8Xb + # # # # # # # # # # # # # # # # # # # # # # # # # # # # # # # # # # # # # # # # # # # # # # # # # # # # # # # # + <  XPX",
"PXaX) o # # # + # # # # # # # # # # # + # # # # # # # # # # # + # # # # # # # # # # # + # # # # # # # # # # # + # # # # + a ;XPX",
"PXPXL.: o + # + + o # o @ o @ @ + # @ o o o # + # o + # + # @ o o o # + @ o # @ + # @ o o o # + # o + # + # @ o + o @ o o j.NXPX",
"PXPXvXH.K b j j l l l a l l j j a j l l l l l a l j j j a j l l l l l a l j j j a j l l l l l a j j j j a j l l j j j F n.wXPXPX",
"PXPXPXPXrX1X1X1X1X1X1X1X1X1X1X1X1X1X1X1X1X1X1X1X1X1X1X1X1X1X1X1X1X1X1X1X1X1X1X1X1X1X1X1X1X1X1X1X1X1X1X1X1X1X1X1X1X1X1X0XFXPXPXPX",
"PXPXPXPXPXPXPXPXPXPXPXPXPXPXPXPXPXPXPXPXPXPXPXPXPXPXPXPXPXPXPXPXPXPXPXPXPXPXPXPXPXPXPXPXPXPXPXPXPXPXPXPXPXPXPXPXPXPXPXPXPXPXPXPX"
};
